<mxfile host="app.diagrams.net" agent="Mozilla/5.0 (X11; Linux x86_64) AppleWebKit/537.36 (KHTML, like Gecko) Chrome/132.0.0.0 Safari/537.36" version="26.0.11">
  <diagram name="Page-1" id="2a216829-ef6e-dabb-86c1-c78162f3ba2b">
    <mxGraphModel dx="4720" dy="1857" grid="1" gridSize="10" guides="1" tooltips="1" connect="1" arrows="1" fold="1" page="1" pageScale="1" pageWidth="850" pageHeight="1100" background="none" math="0" shadow="0">
      <root>
        <mxCell id="0" />
        <mxCell id="1" parent="0" />
        <object label="&lt;font&gt;main.py&lt;/font&gt;" id="lwENeaAtsfyGaTis-p5Q-7">
          <mxCell style="swimlane;whiteSpace=wrap;html=1;align=left;fontFamily=Courier New;" vertex="1" parent="1">
            <mxGeometry x="630" y="110" width="3820" height="1730" as="geometry" />
          </mxCell>
        </object>
        <mxCell id="lwENeaAtsfyGaTis-p5Q-27" value="On Startup" style="shape=table;startSize=30;container=1;collapsible=0;childLayout=tableLayout;fixedRows=1;rowLines=1;fontStyle=0;strokeColor=default;fontSize=16;rounded=0;swimlaneFillColor=default;gradientColor=none;fontFamily=Courier New;gradientDirection=north;fillStyle=auto;points=[[0,0,0,0,0],[0,0.25,0,0,0],[0,0.5,0,0,0],[0,0.75,0,0,0],[0,1,0,0,0],[0.25,0,0,0,0],[0.25,1,0,0,0],[0.5,0,0,0,0],[0.5,1,0,0,0],[0.75,0,0,0,0],[0.75,1,0,0,0],[1,0,0,0,0],[1,0.25,0,0,0],[1,0.5,0,0,0],[1,0.75,0,0,0],[1,1,0,0,0]];" vertex="1" parent="lwENeaAtsfyGaTis-p5Q-7">
          <mxGeometry x="10" y="29" width="350" height="120" as="geometry" />
        </mxCell>
        <mxCell id="lwENeaAtsfyGaTis-p5Q-28" value="" style="shape=tableRow;horizontal=0;startSize=0;swimlaneHead=0;swimlaneBody=0;top=0;left=0;bottom=0;right=0;collapsible=0;dropTarget=0;fillColor=none;points=[[0,0.5],[1,0.5]];portConstraint=eastwest;strokeColor=inherit;fontSize=16;" vertex="1" parent="lwENeaAtsfyGaTis-p5Q-27">
          <mxGeometry y="30" width="350" height="30" as="geometry" />
        </mxCell>
        <mxCell id="lwENeaAtsfyGaTis-p5Q-29" value="1" style="shape=partialRectangle;html=1;whiteSpace=wrap;connectable=0;fillColor=none;top=0;left=0;bottom=0;right=0;overflow=hidden;pointerEvents=1;strokeColor=inherit;fontSize=16;" vertex="1" parent="lwENeaAtsfyGaTis-p5Q-28">
          <mxGeometry width="58" height="30" as="geometry">
            <mxRectangle width="58" height="30" as="alternateBounds" />
          </mxGeometry>
        </mxCell>
        <mxCell id="lwENeaAtsfyGaTis-p5Q-30" value="&lt;font face=&quot;Courier New&quot;&gt;import libraries, and game&amp;nbsp;&lt;/font&gt;" style="shape=partialRectangle;html=1;whiteSpace=wrap;connectable=0;fillColor=none;top=0;left=0;bottom=0;right=0;align=left;spacingLeft=6;overflow=hidden;strokeColor=inherit;fontSize=16;" vertex="1" parent="lwENeaAtsfyGaTis-p5Q-28">
          <mxGeometry x="58" width="292" height="30" as="geometry">
            <mxRectangle width="292" height="30" as="alternateBounds" />
          </mxGeometry>
        </mxCell>
        <mxCell id="lwENeaAtsfyGaTis-p5Q-31" value="" style="shape=tableRow;horizontal=0;startSize=0;swimlaneHead=0;swimlaneBody=0;top=0;left=0;bottom=0;right=0;collapsible=0;dropTarget=0;fillColor=none;points=[[0,0.5],[1,0.5]];portConstraint=eastwest;strokeColor=inherit;fontSize=16;" vertex="1" parent="lwENeaAtsfyGaTis-p5Q-27">
          <mxGeometry y="60" width="350" height="30" as="geometry" />
        </mxCell>
        <mxCell id="lwENeaAtsfyGaTis-p5Q-32" value="2" style="shape=partialRectangle;html=1;whiteSpace=wrap;connectable=0;fillColor=none;top=0;left=0;bottom=0;right=0;overflow=hidden;strokeColor=inherit;fontSize=16;" vertex="1" parent="lwENeaAtsfyGaTis-p5Q-31">
          <mxGeometry width="58" height="30" as="geometry">
            <mxRectangle width="58" height="30" as="alternateBounds" />
          </mxGeometry>
        </mxCell>
        <mxCell id="lwENeaAtsfyGaTis-p5Q-33" value="&lt;font face=&quot;Courier New&quot;&gt;Get command line args&lt;/font&gt;" style="shape=partialRectangle;html=1;whiteSpace=wrap;connectable=0;fillColor=none;top=0;left=0;bottom=0;right=0;align=left;spacingLeft=6;overflow=hidden;strokeColor=inherit;fontSize=16;" vertex="1" parent="lwENeaAtsfyGaTis-p5Q-31">
          <mxGeometry x="58" width="292" height="30" as="geometry">
            <mxRectangle width="292" height="30" as="alternateBounds" />
          </mxGeometry>
        </mxCell>
        <mxCell id="lwENeaAtsfyGaTis-p5Q-34" value="" style="shape=tableRow;horizontal=0;startSize=0;swimlaneHead=0;swimlaneBody=0;top=0;left=0;bottom=0;right=0;collapsible=0;dropTarget=0;fillColor=none;points=[[0,0.5],[1,0.5]];portConstraint=eastwest;strokeColor=inherit;fontSize=16;" vertex="1" parent="lwENeaAtsfyGaTis-p5Q-27">
          <mxGeometry y="90" width="350" height="30" as="geometry" />
        </mxCell>
        <mxCell id="lwENeaAtsfyGaTis-p5Q-35" value="3" style="shape=partialRectangle;html=1;whiteSpace=wrap;connectable=0;fillColor=none;top=0;left=0;bottom=0;right=0;overflow=hidden;strokeColor=inherit;fontSize=16;" vertex="1" parent="lwENeaAtsfyGaTis-p5Q-34">
          <mxGeometry width="58" height="30" as="geometry">
            <mxRectangle width="58" height="30" as="alternateBounds" />
          </mxGeometry>
        </mxCell>
        <mxCell id="lwENeaAtsfyGaTis-p5Q-36" value="&lt;font face=&quot;Courier New&quot;&gt;Initiate Game&lt;/font&gt;" style="shape=partialRectangle;html=1;whiteSpace=wrap;connectable=0;fillColor=none;top=0;left=0;bottom=0;right=0;align=left;spacingLeft=6;overflow=hidden;strokeColor=inherit;fontSize=16;" vertex="1" parent="lwENeaAtsfyGaTis-p5Q-34">
          <mxGeometry x="58" width="292" height="30" as="geometry">
            <mxRectangle width="292" height="30" as="alternateBounds" />
          </mxGeometry>
        </mxCell>
        <mxCell id="lwENeaAtsfyGaTis-p5Q-42" value="" style="shape=datastore;whiteSpace=wrap;html=1;fontFamily=Courier New;connectable=1;container=0;movable=1;resizable=1;rotatable=1;deletable=1;editable=1;locked=0;" vertex="1" parent="lwENeaAtsfyGaTis-p5Q-7">
          <mxGeometry x="75" y="220" width="265" height="230" as="geometry" />
        </mxCell>
        <mxCell id="lwENeaAtsfyGaTis-p5Q-45" value="&lt;font style=&quot;font-size: 11px;&quot; face=&quot;Courier New&quot;&gt;height = args.height&lt;/font&gt;" style="text;strokeColor=none;fillColor=none;align=left;verticalAlign=middle;spacingLeft=4;spacingRight=4;overflow=hidden;points=[[0,0.5],[1,0.5]];portConstraint=eastwest;rotatable=0;whiteSpace=wrap;html=1;" vertex="1" parent="lwENeaAtsfyGaTis-p5Q-7">
          <mxGeometry x="80" y="310" width="190" height="25" as="geometry" />
        </mxCell>
        <mxCell id="lwENeaAtsfyGaTis-p5Q-48" style="edgeStyle=orthogonalEdgeStyle;rounded=1;orthogonalLoop=1;jettySize=auto;html=1;flowAnimation=1;curved=0;fillColor=#d5e8d4;strokeColor=#000000;exitX=1;exitY=0.5;exitDx=0;exitDy=0;entryX=0;entryY=0.5;entryDx=0;entryDy=0;" edge="1" parent="lwENeaAtsfyGaTis-p5Q-7" source="lwENeaAtsfyGaTis-p5Q-31" target="lwENeaAtsfyGaTis-p5Q-148">
          <mxGeometry relative="1" as="geometry">
            <mxPoint x="30" y="550" as="targetPoint" />
            <Array as="points">
              <mxPoint x="380" y="104" />
              <mxPoint x="380" y="200" />
              <mxPoint x="20" y="200" />
              <mxPoint x="20" y="543" />
            </Array>
          </mxGeometry>
        </mxCell>
        <mxCell id="lwENeaAtsfyGaTis-p5Q-49" value="&lt;font style=&quot;font-size: 11px;&quot; face=&quot;Courier New&quot;&gt;screen_width = args.width&lt;/font&gt;" style="text;strokeColor=none;fillColor=none;align=left;verticalAlign=middle;spacingLeft=4;spacingRight=4;overflow=hidden;points=[[0,0.5],[1,0.5]];portConstraint=eastwest;rotatable=0;whiteSpace=wrap;html=1;" vertex="1" parent="lwENeaAtsfyGaTis-p5Q-7">
          <mxGeometry x="80" y="335" width="190" height="25" as="geometry" />
        </mxCell>
        <mxCell id="lwENeaAtsfyGaTis-p5Q-54" value="&lt;font style=&quot;font-size: 11px;&quot; face=&quot;Courier New&quot;&gt;game = Game(width, height, players)&lt;/font&gt;" style="text;strokeColor=none;fillColor=none;align=left;verticalAlign=middle;spacingLeft=4;spacingRight=4;overflow=hidden;points=[[0,0.5],[1,0.5]];portConstraint=eastwest;rotatable=0;whiteSpace=wrap;html=1;" vertex="1" parent="lwENeaAtsfyGaTis-p5Q-7">
          <mxGeometry x="80" y="380" width="250" height="40" as="geometry" />
        </mxCell>
        <mxCell id="lwENeaAtsfyGaTis-p5Q-56" value="&lt;font face=&quot;Courier New&quot;&gt;Game()&lt;/font&gt;" style="swimlane;whiteSpace=wrap;html=1;align=left;swimlaneLine=1;" vertex="1" parent="lwENeaAtsfyGaTis-p5Q-7">
          <mxGeometry x="490" y="80" width="3080" height="1570" as="geometry" />
        </mxCell>
        <mxCell id="lwENeaAtsfyGaTis-p5Q-72" value="On import" style="shape=table;startSize=30;container=1;collapsible=0;childLayout=tableLayout;fixedRows=1;rowLines=0;fontStyle=0;strokeColor=default;fontSize=16;rounded=0;swimlaneFillColor=default;gradientColor=none;fontFamily=Courier New;gradientDirection=north;fillStyle=auto;points=[[0,0,0,0,0],[0,0.25,0,0,0],[0,0.5,0,0,0],[0,0.75,0,0,0],[0,1,0,0,0],[0.25,0,0,0,0],[0.25,1,0,0,0],[0.5,0,0,0,0],[0.5,1,0,0,0],[0.75,0,0,0,0],[0.75,1,0,0,0],[1,0,0,0,0],[1,0.25,0,0,0],[1,0.5,0,0,0],[1,0.75,0,0,0],[1,1,0,0,0]];swimlaneLine=1;columnLines=0;noLabel=0;align=center;" vertex="1" parent="lwENeaAtsfyGaTis-p5Q-56">
          <mxGeometry x="20" y="38" width="220" height="232" as="geometry" />
        </mxCell>
        <mxCell id="lwENeaAtsfyGaTis-p5Q-73" value="" style="shape=tableRow;horizontal=0;startSize=0;swimlaneHead=0;swimlaneBody=0;top=0;left=0;bottom=0;right=0;collapsible=0;dropTarget=0;fillColor=none;points=[[0,0.5],[1,0.5]];portConstraint=eastwest;strokeColor=inherit;fontSize=16;align=center;" vertex="1" parent="lwENeaAtsfyGaTis-p5Q-72">
          <mxGeometry y="30" width="220" height="30" as="geometry" />
        </mxCell>
        <mxCell id="lwENeaAtsfyGaTis-p5Q-74" value="" style="shape=partialRectangle;html=1;whiteSpace=wrap;connectable=0;fillColor=none;top=0;left=0;bottom=0;right=0;overflow=hidden;pointerEvents=1;strokeColor=inherit;fontSize=16;align=center;" vertex="1" parent="lwENeaAtsfyGaTis-p5Q-73">
          <mxGeometry width="15" height="30" as="geometry">
            <mxRectangle width="15" height="30" as="alternateBounds" />
          </mxGeometry>
        </mxCell>
        <mxCell id="lwENeaAtsfyGaTis-p5Q-75" value="&lt;font face=&quot;Courier New&quot;&gt;import pygame&amp;nbsp;&lt;/font&gt;" style="shape=partialRectangle;html=1;whiteSpace=wrap;connectable=0;fillColor=none;top=0;left=0;bottom=0;right=0;align=left;spacingLeft=6;overflow=hidden;strokeColor=inherit;fontSize=16;" vertex="1" parent="lwENeaAtsfyGaTis-p5Q-73">
          <mxGeometry x="15" width="205" height="30" as="geometry">
            <mxRectangle width="205" height="30" as="alternateBounds" />
          </mxGeometry>
        </mxCell>
        <mxCell id="lwENeaAtsfyGaTis-p5Q-76" value="" style="shape=tableRow;horizontal=0;startSize=0;swimlaneHead=0;swimlaneBody=0;top=0;left=0;bottom=0;right=0;collapsible=0;dropTarget=0;fillColor=none;points=[[0,0.5],[1,0.5]];portConstraint=eastwest;strokeColor=inherit;fontSize=16;align=center;" vertex="1" parent="lwENeaAtsfyGaTis-p5Q-72">
          <mxGeometry y="60" width="220" height="30" as="geometry" />
        </mxCell>
        <mxCell id="lwENeaAtsfyGaTis-p5Q-77" value="" style="shape=partialRectangle;html=1;whiteSpace=wrap;connectable=0;fillColor=none;top=0;left=0;bottom=0;right=0;overflow=hidden;strokeColor=inherit;fontSize=16;align=center;" vertex="1" parent="lwENeaAtsfyGaTis-p5Q-76">
          <mxGeometry width="15" height="30" as="geometry">
            <mxRectangle width="15" height="30" as="alternateBounds" />
          </mxGeometry>
        </mxCell>
        <mxCell id="lwENeaAtsfyGaTis-p5Q-78" value="&lt;font face=&quot;Courier New&quot;&gt;import board&amp;nbsp;&lt;/font&gt;" style="shape=partialRectangle;html=1;whiteSpace=wrap;connectable=0;fillColor=none;top=0;left=0;bottom=0;right=0;align=left;spacingLeft=6;overflow=hidden;strokeColor=inherit;fontSize=16;" vertex="1" parent="lwENeaAtsfyGaTis-p5Q-76">
          <mxGeometry x="15" width="205" height="30" as="geometry">
            <mxRectangle width="205" height="30" as="alternateBounds" />
          </mxGeometry>
        </mxCell>
        <mxCell id="lwENeaAtsfyGaTis-p5Q-79" value="" style="shape=tableRow;horizontal=0;startSize=0;swimlaneHead=0;swimlaneBody=0;top=0;left=0;bottom=0;right=0;collapsible=0;dropTarget=0;fillColor=none;points=[[0,0.5],[1,0.5]];portConstraint=eastwest;strokeColor=inherit;fontSize=16;align=center;" vertex="1" parent="lwENeaAtsfyGaTis-p5Q-72">
          <mxGeometry y="90" width="220" height="30" as="geometry" />
        </mxCell>
        <mxCell id="lwENeaAtsfyGaTis-p5Q-80" value="" style="shape=partialRectangle;html=1;whiteSpace=wrap;connectable=0;fillColor=none;top=0;left=0;bottom=0;right=0;overflow=hidden;strokeColor=inherit;fontSize=16;align=center;" vertex="1" parent="lwENeaAtsfyGaTis-p5Q-79">
          <mxGeometry width="15" height="30" as="geometry">
            <mxRectangle width="15" height="30" as="alternateBounds" />
          </mxGeometry>
        </mxCell>
        <mxCell id="lwENeaAtsfyGaTis-p5Q-81" value="&lt;font face=&quot;Courier New&quot;&gt;import graph&lt;/font&gt;" style="shape=partialRectangle;html=1;whiteSpace=wrap;connectable=0;fillColor=none;top=0;left=0;bottom=0;right=0;align=left;spacingLeft=6;overflow=hidden;strokeColor=inherit;fontSize=16;" vertex="1" parent="lwENeaAtsfyGaTis-p5Q-79">
          <mxGeometry x="15" width="205" height="30" as="geometry">
            <mxRectangle width="205" height="30" as="alternateBounds" />
          </mxGeometry>
        </mxCell>
        <mxCell id="lwENeaAtsfyGaTis-p5Q-82" style="shape=tableRow;horizontal=0;startSize=0;swimlaneHead=0;swimlaneBody=0;top=0;left=0;bottom=0;right=0;collapsible=0;dropTarget=0;fillColor=none;points=[[0,0.5],[1,0.5]];portConstraint=eastwest;strokeColor=inherit;fontSize=16;align=center;" vertex="1" parent="lwENeaAtsfyGaTis-p5Q-72">
          <mxGeometry y="120" width="220" height="30" as="geometry" />
        </mxCell>
        <mxCell id="lwENeaAtsfyGaTis-p5Q-83" value="" style="shape=partialRectangle;html=1;whiteSpace=wrap;connectable=0;fillColor=none;top=0;left=0;bottom=0;right=0;overflow=hidden;strokeColor=inherit;fontSize=16;align=center;" vertex="1" parent="lwENeaAtsfyGaTis-p5Q-82">
          <mxGeometry width="15" height="30" as="geometry">
            <mxRectangle width="15" height="30" as="alternateBounds" />
          </mxGeometry>
        </mxCell>
        <mxCell id="lwENeaAtsfyGaTis-p5Q-84" value="&lt;font face=&quot;Courier New&quot;&gt;import&amp;nbsp;&lt;/font&gt;&lt;span style=&quot;font-family: &amp;quot;Courier New&amp;quot;;&quot;&gt;deck&lt;/span&gt;" style="shape=partialRectangle;html=1;whiteSpace=wrap;connectable=0;fillColor=none;top=0;left=0;bottom=0;right=0;align=left;spacingLeft=6;overflow=hidden;strokeColor=inherit;fontSize=16;" vertex="1" parent="lwENeaAtsfyGaTis-p5Q-82">
          <mxGeometry x="15" width="205" height="30" as="geometry">
            <mxRectangle width="205" height="30" as="alternateBounds" />
          </mxGeometry>
        </mxCell>
        <mxCell id="lwENeaAtsfyGaTis-p5Q-106" style="shape=tableRow;horizontal=0;startSize=0;swimlaneHead=0;swimlaneBody=0;top=0;left=0;bottom=0;right=0;collapsible=0;dropTarget=0;fillColor=none;points=[[0,0.5],[1,0.5]];portConstraint=eastwest;strokeColor=inherit;fontSize=16;align=center;" vertex="1" parent="lwENeaAtsfyGaTis-p5Q-72">
          <mxGeometry y="150" width="220" height="30" as="geometry" />
        </mxCell>
        <mxCell id="lwENeaAtsfyGaTis-p5Q-107" style="shape=partialRectangle;html=1;whiteSpace=wrap;connectable=0;fillColor=none;top=0;left=0;bottom=0;right=0;overflow=hidden;strokeColor=inherit;fontSize=16;align=center;" vertex="1" parent="lwENeaAtsfyGaTis-p5Q-106">
          <mxGeometry width="15" height="30" as="geometry">
            <mxRectangle width="15" height="30" as="alternateBounds" />
          </mxGeometry>
        </mxCell>
        <mxCell id="lwENeaAtsfyGaTis-p5Q-108" value="&lt;font face=&quot;Courier New&quot;&gt;import&amp;nbsp;&lt;/font&gt;&lt;span style=&quot;font-family: &amp;quot;Courier New&amp;quot;;&quot;&gt;player&lt;/span&gt;" style="shape=partialRectangle;html=1;whiteSpace=wrap;connectable=0;fillColor=none;top=0;left=0;bottom=0;right=0;align=left;spacingLeft=6;overflow=hidden;strokeColor=inherit;fontSize=16;" vertex="1" parent="lwENeaAtsfyGaTis-p5Q-106">
          <mxGeometry x="15" width="205" height="30" as="geometry">
            <mxRectangle width="205" height="30" as="alternateBounds" />
          </mxGeometry>
        </mxCell>
        <mxCell id="lwENeaAtsfyGaTis-p5Q-103" style="shape=tableRow;horizontal=0;startSize=0;swimlaneHead=0;swimlaneBody=0;top=0;left=0;bottom=0;right=0;collapsible=0;dropTarget=0;fillColor=none;points=[[0,0.5],[1,0.5]];portConstraint=eastwest;strokeColor=inherit;fontSize=16;align=center;" vertex="1" parent="lwENeaAtsfyGaTis-p5Q-72">
          <mxGeometry y="180" width="220" height="30" as="geometry" />
        </mxCell>
        <mxCell id="lwENeaAtsfyGaTis-p5Q-104" style="shape=partialRectangle;html=1;whiteSpace=wrap;connectable=0;fillColor=none;top=0;left=0;bottom=0;right=0;overflow=hidden;strokeColor=inherit;fontSize=16;align=center;" vertex="1" parent="lwENeaAtsfyGaTis-p5Q-103">
          <mxGeometry width="15" height="30" as="geometry">
            <mxRectangle width="15" height="30" as="alternateBounds" />
          </mxGeometry>
        </mxCell>
        <mxCell id="lwENeaAtsfyGaTis-p5Q-105" value="import&amp;nbsp;&lt;span style=&quot;font-family: &amp;quot;Courier New&amp;quot;;&quot;&gt;distance_matrix&lt;/span&gt;" style="shape=partialRectangle;html=1;whiteSpace=wrap;connectable=0;fillColor=none;top=0;left=0;bottom=0;right=0;align=left;spacingLeft=6;overflow=hidden;strokeColor=inherit;fontSize=16;" vertex="1" parent="lwENeaAtsfyGaTis-p5Q-103">
          <mxGeometry x="15" width="205" height="30" as="geometry">
            <mxRectangle width="205" height="30" as="alternateBounds" />
          </mxGeometry>
        </mxCell>
        <mxCell id="lwENeaAtsfyGaTis-p5Q-115" value="On Initialization" style="shape=table;startSize=30;container=1;collapsible=0;childLayout=tableLayout;fixedRows=1;rowLines=1;fontStyle=0;strokeColor=default;fontSize=16;rounded=0;swimlaneFillColor=default;gradientColor=none;fontFamily=Courier New;gradientDirection=north;fillStyle=auto;points=[[0,0,0,0,0],[0,0.25,0,0,0],[0,0.5,0,0,0],[0,0.75,0,0,0],[0,1,0,0,0],[0.25,0,0,0,0],[0.25,1,0,0,0],[0.5,0,0,0,0],[0.5,1,0,0,0],[0.75,0,0,0,0],[0.75,1,0,0,0],[1,0,0,0,0],[1,0.25,0,0,0],[1,0.5,0,0,0],[1,0.75,0,0,0],[1,1,0,0,0]];" vertex="1" parent="lwENeaAtsfyGaTis-p5Q-56">
          <mxGeometry x="20" y="300" width="320" height="180" as="geometry" />
        </mxCell>
        <mxCell id="lwENeaAtsfyGaTis-p5Q-116" value="" style="shape=tableRow;horizontal=0;startSize=0;swimlaneHead=0;swimlaneBody=0;top=0;left=0;bottom=0;right=0;collapsible=0;dropTarget=0;fillColor=none;points=[[0,0.5],[1,0.5]];portConstraint=eastwest;strokeColor=inherit;fontSize=16;" vertex="1" parent="lwENeaAtsfyGaTis-p5Q-115">
          <mxGeometry y="30" width="320" height="30" as="geometry" />
        </mxCell>
        <mxCell id="lwENeaAtsfyGaTis-p5Q-117" value="1" style="shape=partialRectangle;html=1;whiteSpace=wrap;connectable=0;fillColor=none;top=0;left=0;bottom=0;right=0;overflow=hidden;pointerEvents=1;strokeColor=inherit;fontSize=16;" vertex="1" parent="lwENeaAtsfyGaTis-p5Q-116">
          <mxGeometry width="20" height="30" as="geometry">
            <mxRectangle width="20" height="30" as="alternateBounds" />
          </mxGeometry>
        </mxCell>
        <mxCell id="lwENeaAtsfyGaTis-p5Q-118" value="&lt;span style=&quot;font-family: &amp;quot;Courier New&amp;quot;;&quot;&gt;Initialize pygame&lt;/span&gt;" style="shape=partialRectangle;html=1;whiteSpace=wrap;connectable=0;fillColor=none;top=0;left=0;bottom=0;right=0;align=left;spacingLeft=6;overflow=hidden;strokeColor=inherit;fontSize=16;" vertex="1" parent="lwENeaAtsfyGaTis-p5Q-116">
          <mxGeometry x="20" width="300" height="30" as="geometry">
            <mxRectangle width="300" height="30" as="alternateBounds" />
          </mxGeometry>
        </mxCell>
        <mxCell id="lwENeaAtsfyGaTis-p5Q-119" value="" style="shape=tableRow;horizontal=0;startSize=0;swimlaneHead=0;swimlaneBody=0;top=0;left=0;bottom=0;right=0;collapsible=0;dropTarget=0;fillColor=none;points=[[0,0.5],[1,0.5]];portConstraint=eastwest;strokeColor=inherit;fontSize=16;" vertex="1" parent="lwENeaAtsfyGaTis-p5Q-115">
          <mxGeometry y="60" width="320" height="30" as="geometry" />
        </mxCell>
        <mxCell id="lwENeaAtsfyGaTis-p5Q-120" value="2" style="shape=partialRectangle;html=1;whiteSpace=wrap;connectable=0;fillColor=none;top=0;left=0;bottom=0;right=0;overflow=hidden;strokeColor=inherit;fontSize=16;" vertex="1" parent="lwENeaAtsfyGaTis-p5Q-119">
          <mxGeometry width="20" height="30" as="geometry">
            <mxRectangle width="20" height="30" as="alternateBounds" />
          </mxGeometry>
        </mxCell>
        <mxCell id="lwENeaAtsfyGaTis-p5Q-121" value="Initialize Deck&amp;nbsp;" style="shape=partialRectangle;html=1;whiteSpace=wrap;connectable=0;fillColor=none;top=0;left=0;bottom=0;right=0;align=left;spacingLeft=6;overflow=hidden;strokeColor=inherit;fontSize=16;fontFamily=Courier New;" vertex="1" parent="lwENeaAtsfyGaTis-p5Q-119">
          <mxGeometry x="20" width="300" height="30" as="geometry">
            <mxRectangle width="300" height="30" as="alternateBounds" />
          </mxGeometry>
        </mxCell>
        <mxCell id="lwENeaAtsfyGaTis-p5Q-122" value="" style="shape=tableRow;horizontal=0;startSize=0;swimlaneHead=0;swimlaneBody=0;top=0;left=0;bottom=0;right=0;collapsible=0;dropTarget=0;fillColor=none;points=[[0,0.5],[1,0.5]];portConstraint=eastwest;strokeColor=inherit;fontSize=16;" vertex="1" parent="lwENeaAtsfyGaTis-p5Q-115">
          <mxGeometry y="90" width="320" height="30" as="geometry" />
        </mxCell>
        <mxCell id="lwENeaAtsfyGaTis-p5Q-123" value="3" style="shape=partialRectangle;html=1;whiteSpace=wrap;connectable=0;fillColor=none;top=0;left=0;bottom=0;right=0;overflow=hidden;strokeColor=inherit;fontSize=16;" vertex="1" parent="lwENeaAtsfyGaTis-p5Q-122">
          <mxGeometry width="20" height="30" as="geometry">
            <mxRectangle width="20" height="30" as="alternateBounds" />
          </mxGeometry>
        </mxCell>
        <mxCell id="lwENeaAtsfyGaTis-p5Q-124" value="&lt;span style=&quot;font-family: &amp;quot;Courier New&amp;quot;;&quot;&gt;Initialize Board&amp;nbsp;&lt;/span&gt;" style="shape=partialRectangle;html=1;whiteSpace=wrap;connectable=0;fillColor=none;top=0;left=0;bottom=0;right=0;align=left;spacingLeft=6;overflow=hidden;strokeColor=inherit;fontSize=16;" vertex="1" parent="lwENeaAtsfyGaTis-p5Q-122">
          <mxGeometry x="20" width="300" height="30" as="geometry">
            <mxRectangle width="300" height="30" as="alternateBounds" />
          </mxGeometry>
        </mxCell>
        <mxCell id="lwENeaAtsfyGaTis-p5Q-125" style="shape=tableRow;horizontal=0;startSize=0;swimlaneHead=0;swimlaneBody=0;top=0;left=0;bottom=0;right=0;collapsible=0;dropTarget=0;fillColor=none;points=[[0,0.5],[1,0.5]];portConstraint=eastwest;strokeColor=inherit;fontSize=16;" vertex="1" parent="lwENeaAtsfyGaTis-p5Q-115">
          <mxGeometry y="120" width="320" height="30" as="geometry" />
        </mxCell>
        <mxCell id="lwENeaAtsfyGaTis-p5Q-126" value="4" style="shape=partialRectangle;html=1;whiteSpace=wrap;connectable=0;fillColor=none;top=0;left=0;bottom=0;right=0;overflow=hidden;strokeColor=inherit;fontSize=16;" vertex="1" parent="lwENeaAtsfyGaTis-p5Q-125">
          <mxGeometry width="20" height="30" as="geometry">
            <mxRectangle width="20" height="30" as="alternateBounds" />
          </mxGeometry>
        </mxCell>
        <mxCell id="lwENeaAtsfyGaTis-p5Q-127" value="&lt;span style=&quot;font-family: &amp;quot;Courier New&amp;quot;;&quot;&gt;Initialize Players&lt;/span&gt;" style="shape=partialRectangle;html=1;whiteSpace=wrap;connectable=0;fillColor=none;top=0;left=0;bottom=0;right=0;align=left;spacingLeft=6;overflow=hidden;strokeColor=inherit;fontSize=16;" vertex="1" parent="lwENeaAtsfyGaTis-p5Q-125">
          <mxGeometry x="20" width="300" height="30" as="geometry">
            <mxRectangle width="300" height="30" as="alternateBounds" />
          </mxGeometry>
        </mxCell>
        <mxCell id="lwENeaAtsfyGaTis-p5Q-137" style="shape=tableRow;horizontal=0;startSize=0;swimlaneHead=0;swimlaneBody=0;top=0;left=0;bottom=0;right=0;collapsible=0;dropTarget=0;fillColor=none;points=[[0,0.5],[1,0.5]];portConstraint=eastwest;strokeColor=inherit;fontSize=16;fontFamily=Courier New;" vertex="1" parent="lwENeaAtsfyGaTis-p5Q-115">
          <mxGeometry y="150" width="320" height="30" as="geometry" />
        </mxCell>
        <mxCell id="lwENeaAtsfyGaTis-p5Q-138" value="&lt;font face=&quot;Courier New&quot;&gt;5&lt;/font&gt;" style="shape=partialRectangle;html=1;whiteSpace=wrap;connectable=0;fillColor=none;top=0;left=0;bottom=0;right=0;overflow=hidden;strokeColor=inherit;fontSize=16;" vertex="1" parent="lwENeaAtsfyGaTis-p5Q-137">
          <mxGeometry width="20" height="30" as="geometry">
            <mxRectangle width="20" height="30" as="alternateBounds" />
          </mxGeometry>
        </mxCell>
        <mxCell id="lwENeaAtsfyGaTis-p5Q-139" value="Initialize Screen" style="shape=partialRectangle;html=1;whiteSpace=wrap;connectable=0;fillColor=none;top=0;left=0;bottom=0;right=0;align=left;spacingLeft=6;overflow=hidden;strokeColor=inherit;fontSize=16;fontFamily=Courier New;" vertex="1" parent="lwENeaAtsfyGaTis-p5Q-137">
          <mxGeometry x="20" width="300" height="30" as="geometry">
            <mxRectangle width="300" height="30" as="alternateBounds" />
          </mxGeometry>
        </mxCell>
        <mxCell id="lwENeaAtsfyGaTis-p5Q-128" value="" style="shape=datastore;whiteSpace=wrap;html=1;fontFamily=Courier New;noLabel=0;" vertex="1" parent="lwENeaAtsfyGaTis-p5Q-56">
          <mxGeometry x="40" y="860" width="360" height="380" as="geometry" />
        </mxCell>
        <mxCell id="lwENeaAtsfyGaTis-p5Q-135" style="edgeStyle=orthogonalEdgeStyle;rounded=1;orthogonalLoop=1;jettySize=auto;html=1;flowAnimation=1;fillColor=#008a00;strokeColor=#005700;exitX=1;exitY=0.5;exitDx=0;exitDy=0;entryX=0;entryY=0.5;entryDx=0;entryDy=0;" edge="1" parent="lwENeaAtsfyGaTis-p5Q-56" source="lwENeaAtsfyGaTis-p5Q-137" target="lwENeaAtsfyGaTis-p5Q-184">
          <mxGeometry relative="1" as="geometry">
            <mxPoint x="460" y="580" as="sourcePoint" />
            <mxPoint x="60" y="1030" as="targetPoint" />
            <Array as="points">
              <mxPoint x="400" y="465" />
              <mxPoint x="400" y="680" />
              <mxPoint x="20" y="680" />
              <mxPoint x="20" y="1015" />
            </Array>
          </mxGeometry>
        </mxCell>
        <mxCell id="lwENeaAtsfyGaTis-p5Q-161" value="" style="endArrow=classic;html=1;rounded=1;exitX=1;exitY=0.5;exitDx=0;exitDy=0;edgeStyle=orthogonalEdgeStyle;curved=0;fillColor=#0050ef;strokeColor=#001DBC;entryX=0;entryY=0.5;entryDx=0;entryDy=0;flowAnimation=1;" edge="1" parent="lwENeaAtsfyGaTis-p5Q-56" source="lwENeaAtsfyGaTis-p5Q-125" target="lwENeaAtsfyGaTis-p5Q-156">
          <mxGeometry relative="1" as="geometry">
            <mxPoint x="310" y="510" as="sourcePoint" />
            <mxPoint x="380" y="70" as="targetPoint" />
            <Array as="points">
              <mxPoint x="400" y="435" />
              <mxPoint x="400" y="110" />
            </Array>
          </mxGeometry>
        </mxCell>
        <mxCell id="lwENeaAtsfyGaTis-p5Q-162" value="&lt;font face=&quot;Courier New&quot;&gt;( List[String] )&lt;/font&gt;" style="edgeLabel;resizable=0;html=1;;align=center;verticalAlign=middle;fontColor=#0000FF;rotation=0;" connectable="0" vertex="1" parent="lwENeaAtsfyGaTis-p5Q-161">
          <mxGeometry relative="1" as="geometry">
            <mxPoint x="120" y="-77" as="offset" />
          </mxGeometry>
        </mxCell>
        <mxCell id="lwENeaAtsfyGaTis-p5Q-182" value="&lt;font face=&quot;Courier New&quot;&gt;Functions&lt;/font&gt;" style="swimlane;whiteSpace=wrap;html=1;swimlaneHead=0;swimlaneBody=0;horizontal=1;" vertex="1" parent="lwENeaAtsfyGaTis-p5Q-56">
          <mxGeometry x="440" y="50" width="560" height="332" as="geometry" />
        </mxCell>
        <mxCell id="lwENeaAtsfyGaTis-p5Q-156" value="&lt;font face=&quot;Courier New&quot;&gt;_get_players()&lt;/font&gt;" style="shape=ext;double=1;rounded=0;whiteSpace=wrap;html=1;" vertex="1" parent="lwENeaAtsfyGaTis-p5Q-182">
          <mxGeometry x="190" y="40" width="180" height="40" as="geometry" />
        </mxCell>
        <mxCell id="lwENeaAtsfyGaTis-p5Q-184" value="&lt;table style=&quot;font-family: &amp;quot;Courier New&amp;quot;; text-align: center;&quot;&gt;&lt;tbody&gt;&lt;tr&gt;&lt;td&gt;&lt;font style=&quot;font-size: 11px;&quot;&gt;self.screen =&amp;nbsp;pygame.display.set_mode((w, h))&lt;/font&gt;&lt;/td&gt;&lt;/tr&gt;&lt;/tbody&gt;&lt;/table&gt;" style="text;strokeColor=none;fillColor=none;align=left;verticalAlign=middle;spacingLeft=4;spacingRight=4;overflow=hidden;points=[[0,0.5],[1,0.5]];portConstraint=eastwest;rotatable=0;whiteSpace=wrap;html=1;" vertex="1" parent="lwENeaAtsfyGaTis-p5Q-56">
          <mxGeometry x="70" y="1000" width="320" height="30" as="geometry" />
        </mxCell>
        <mxCell id="lwENeaAtsfyGaTis-p5Q-185" value="&lt;span style=&quot;font-family: &amp;quot;Courier New&amp;quot;; text-align: center;&quot;&gt;&lt;font style=&quot;font-size: 11px;&quot;&gt;self.deck = Deck()&lt;/font&gt;&lt;/span&gt;" style="text;strokeColor=none;fillColor=none;align=left;verticalAlign=middle;spacingLeft=4;spacingRight=4;overflow=hidden;points=[[0,0.5],[1,0.5]];portConstraint=eastwest;rotatable=0;whiteSpace=wrap;html=1;" vertex="1" parent="lwENeaAtsfyGaTis-p5Q-56">
          <mxGeometry x="75" y="1020" width="160" height="30" as="geometry" />
        </mxCell>
        <mxCell id="lwENeaAtsfyGaTis-p5Q-186" value="&lt;span style=&quot;font-family: &amp;quot;Courier New&amp;quot;; text-align: center;&quot;&gt;self.board = Board()&lt;/span&gt;" style="text;strokeColor=none;fillColor=none;align=left;verticalAlign=middle;spacingLeft=4;spacingRight=4;overflow=hidden;points=[[0,0.5],[1,0.5]];portConstraint=eastwest;rotatable=0;whiteSpace=wrap;html=1;" vertex="1" parent="lwENeaAtsfyGaTis-p5Q-56">
          <mxGeometry x="75" y="1040" width="170" height="30" as="geometry" />
        </mxCell>
        <mxCell id="lwENeaAtsfyGaTis-p5Q-187" value="&lt;span style=&quot;font-family: &amp;quot;Courier New&amp;quot;; text-align: center;&quot;&gt;self.players = self._get_players(players)&lt;/span&gt;" style="text;strokeColor=none;fillColor=none;align=left;verticalAlign=middle;spacingLeft=4;spacingRight=4;overflow=hidden;points=[[0,0.5],[1,0.5]];portConstraint=eastwest;rotatable=0;whiteSpace=wrap;html=1;" vertex="1" parent="lwENeaAtsfyGaTis-p5Q-56">
          <mxGeometry x="75" y="1060" width="310" height="30" as="geometry" />
        </mxCell>
        <mxCell id="lwENeaAtsfyGaTis-p5Q-164" value="" style="endArrow=classic;html=1;rounded=1;exitX=1;exitY=0.5;exitDx=0;exitDy=0;fillColor=#0050ef;strokeColor=#001DBC;flowAnimation=1;edgeStyle=orthogonalEdgeStyle;entryX=0;entryY=0.5;entryDx=0;entryDy=0;" edge="1" parent="lwENeaAtsfyGaTis-p5Q-56" source="lwENeaAtsfyGaTis-p5Q-156" target="lwENeaAtsfyGaTis-p5Q-187">
          <mxGeometry relative="1" as="geometry">
            <mxPoint x="310" y="510" as="sourcePoint" />
            <mxPoint x="50" y="820" as="targetPoint" />
            <Array as="points">
              <mxPoint x="1020" y="110" />
              <mxPoint x="1020" y="400" />
              <mxPoint x="440" y="400" />
              <mxPoint x="440" y="680" />
              <mxPoint x="20" y="680" />
              <mxPoint x="20" y="1075" />
            </Array>
          </mxGeometry>
        </mxCell>
        <mxCell id="lwENeaAtsfyGaTis-p5Q-165" value="&lt;font style=&quot;color: rgb(0, 29, 188);&quot; face=&quot;Courier New&quot;&gt;( List[Player()] )&lt;/font&gt;" style="edgeLabel;resizable=0;html=1;;align=center;verticalAlign=middle;rotation=0;" connectable="0" vertex="1" parent="lwENeaAtsfyGaTis-p5Q-164">
          <mxGeometry relative="1" as="geometry">
            <mxPoint x="460" y="-325" as="offset" />
          </mxGeometry>
        </mxCell>
        <mxCell id="lwENeaAtsfyGaTis-p5Q-188" value="Deck()" style="swimlane;fontFamily=Courier New;align=left;" vertex="1" parent="lwENeaAtsfyGaTis-p5Q-56">
          <mxGeometry x="1120" y="50" width="770" height="650" as="geometry">
            <mxRectangle x="1240" y="600" width="80" height="30" as="alternateBounds" />
          </mxGeometry>
        </mxCell>
        <mxCell id="lwENeaAtsfyGaTis-p5Q-190" value="On import" style="shape=table;startSize=30;container=1;collapsible=0;childLayout=tableLayout;fixedRows=1;rowLines=0;fontStyle=0;strokeColor=default;fontSize=16;rounded=0;swimlaneFillColor=default;gradientColor=none;fontFamily=Courier New;gradientDirection=north;fillStyle=auto;points=[[0,0,0,0,0],[0,0.25,0,0,0],[0,0.5,0,0,0],[0,0.75,0,0,0],[0,1,0,0,0],[0.25,0,0,0,0],[0.25,1,0,0,0],[0.5,0,0,0,0],[0.5,1,0,0,0],[0.75,0,0,0,0],[0.75,1,0,0,0],[1,0,0,0,0],[1,0.25,0,0,0],[1,0.5,0,0,0],[1,0.75,0,0,0],[1,1,0,0,0]];swimlaneLine=1;columnLines=0;noLabel=0;align=center;" vertex="1" parent="lwENeaAtsfyGaTis-p5Q-188">
          <mxGeometry x="20" y="48" width="220" height="232" as="geometry" />
        </mxCell>
        <mxCell id="lwENeaAtsfyGaTis-p5Q-191" value="" style="shape=tableRow;horizontal=0;startSize=0;swimlaneHead=0;swimlaneBody=0;top=0;left=0;bottom=0;right=0;collapsible=0;dropTarget=0;fillColor=none;points=[[0,0.5],[1,0.5]];portConstraint=eastwest;strokeColor=inherit;fontSize=16;align=center;" vertex="1" parent="lwENeaAtsfyGaTis-p5Q-190">
          <mxGeometry y="30" width="220" height="30" as="geometry" />
        </mxCell>
        <mxCell id="lwENeaAtsfyGaTis-p5Q-192" value="" style="shape=partialRectangle;html=1;whiteSpace=wrap;connectable=0;fillColor=none;top=0;left=0;bottom=0;right=0;overflow=hidden;pointerEvents=1;strokeColor=inherit;fontSize=16;align=center;" vertex="1" parent="lwENeaAtsfyGaTis-p5Q-191">
          <mxGeometry width="15" height="30" as="geometry">
            <mxRectangle width="15" height="30" as="alternateBounds" />
          </mxGeometry>
        </mxCell>
        <mxCell id="lwENeaAtsfyGaTis-p5Q-193" value="" style="shape=partialRectangle;html=1;whiteSpace=wrap;connectable=0;fillColor=none;top=0;left=0;bottom=0;right=0;align=left;spacingLeft=6;overflow=hidden;strokeColor=inherit;fontSize=16;" vertex="1" parent="lwENeaAtsfyGaTis-p5Q-191">
          <mxGeometry x="15" width="205" height="30" as="geometry">
            <mxRectangle width="205" height="30" as="alternateBounds" />
          </mxGeometry>
        </mxCell>
        <mxCell id="lwENeaAtsfyGaTis-p5Q-194" value="" style="shape=tableRow;horizontal=0;startSize=0;swimlaneHead=0;swimlaneBody=0;top=0;left=0;bottom=0;right=0;collapsible=0;dropTarget=0;fillColor=none;points=[[0,0.5],[1,0.5]];portConstraint=eastwest;strokeColor=inherit;fontSize=16;align=center;" vertex="1" parent="lwENeaAtsfyGaTis-p5Q-190">
          <mxGeometry y="60" width="220" height="30" as="geometry" />
        </mxCell>
        <mxCell id="lwENeaAtsfyGaTis-p5Q-195" value="" style="shape=partialRectangle;html=1;whiteSpace=wrap;connectable=0;fillColor=none;top=0;left=0;bottom=0;right=0;overflow=hidden;strokeColor=inherit;fontSize=16;align=center;" vertex="1" parent="lwENeaAtsfyGaTis-p5Q-194">
          <mxGeometry width="15" height="30" as="geometry">
            <mxRectangle width="15" height="30" as="alternateBounds" />
          </mxGeometry>
        </mxCell>
        <mxCell id="lwENeaAtsfyGaTis-p5Q-196" value="" style="shape=partialRectangle;html=1;whiteSpace=wrap;connectable=0;fillColor=none;top=0;left=0;bottom=0;right=0;align=left;spacingLeft=6;overflow=hidden;strokeColor=inherit;fontSize=16;" vertex="1" parent="lwENeaAtsfyGaTis-p5Q-194">
          <mxGeometry x="15" width="205" height="30" as="geometry">
            <mxRectangle width="205" height="30" as="alternateBounds" />
          </mxGeometry>
        </mxCell>
        <mxCell id="lwENeaAtsfyGaTis-p5Q-197" value="" style="shape=tableRow;horizontal=0;startSize=0;swimlaneHead=0;swimlaneBody=0;top=0;left=0;bottom=0;right=0;collapsible=0;dropTarget=0;fillColor=none;points=[[0,0.5],[1,0.5]];portConstraint=eastwest;strokeColor=inherit;fontSize=16;align=center;" vertex="1" parent="lwENeaAtsfyGaTis-p5Q-190">
          <mxGeometry y="90" width="220" height="30" as="geometry" />
        </mxCell>
        <mxCell id="lwENeaAtsfyGaTis-p5Q-198" value="" style="shape=partialRectangle;html=1;whiteSpace=wrap;connectable=0;fillColor=none;top=0;left=0;bottom=0;right=0;overflow=hidden;strokeColor=inherit;fontSize=16;align=center;" vertex="1" parent="lwENeaAtsfyGaTis-p5Q-197">
          <mxGeometry width="15" height="30" as="geometry">
            <mxRectangle width="15" height="30" as="alternateBounds" />
          </mxGeometry>
        </mxCell>
        <mxCell id="lwENeaAtsfyGaTis-p5Q-199" value="" style="shape=partialRectangle;html=1;whiteSpace=wrap;connectable=0;fillColor=none;top=0;left=0;bottom=0;right=0;align=left;spacingLeft=6;overflow=hidden;strokeColor=inherit;fontSize=16;" vertex="1" parent="lwENeaAtsfyGaTis-p5Q-197">
          <mxGeometry x="15" width="205" height="30" as="geometry">
            <mxRectangle width="205" height="30" as="alternateBounds" />
          </mxGeometry>
        </mxCell>
        <mxCell id="lwENeaAtsfyGaTis-p5Q-200" style="shape=tableRow;horizontal=0;startSize=0;swimlaneHead=0;swimlaneBody=0;top=0;left=0;bottom=0;right=0;collapsible=0;dropTarget=0;fillColor=none;points=[[0,0.5],[1,0.5]];portConstraint=eastwest;strokeColor=inherit;fontSize=16;align=center;" vertex="1" parent="lwENeaAtsfyGaTis-p5Q-190">
          <mxGeometry y="120" width="220" height="30" as="geometry" />
        </mxCell>
        <mxCell id="lwENeaAtsfyGaTis-p5Q-201" value="" style="shape=partialRectangle;html=1;whiteSpace=wrap;connectable=0;fillColor=none;top=0;left=0;bottom=0;right=0;overflow=hidden;strokeColor=inherit;fontSize=16;align=center;" vertex="1" parent="lwENeaAtsfyGaTis-p5Q-200">
          <mxGeometry width="15" height="30" as="geometry">
            <mxRectangle width="15" height="30" as="alternateBounds" />
          </mxGeometry>
        </mxCell>
        <mxCell id="lwENeaAtsfyGaTis-p5Q-202" value="" style="shape=partialRectangle;html=1;whiteSpace=wrap;connectable=0;fillColor=none;top=0;left=0;bottom=0;right=0;align=left;spacingLeft=6;overflow=hidden;strokeColor=inherit;fontSize=16;" vertex="1" parent="lwENeaAtsfyGaTis-p5Q-200">
          <mxGeometry x="15" width="205" height="30" as="geometry">
            <mxRectangle width="205" height="30" as="alternateBounds" />
          </mxGeometry>
        </mxCell>
        <mxCell id="lwENeaAtsfyGaTis-p5Q-203" style="shape=tableRow;horizontal=0;startSize=0;swimlaneHead=0;swimlaneBody=0;top=0;left=0;bottom=0;right=0;collapsible=0;dropTarget=0;fillColor=none;points=[[0,0.5],[1,0.5]];portConstraint=eastwest;strokeColor=inherit;fontSize=16;align=center;" vertex="1" parent="lwENeaAtsfyGaTis-p5Q-190">
          <mxGeometry y="150" width="220" height="30" as="geometry" />
        </mxCell>
        <mxCell id="lwENeaAtsfyGaTis-p5Q-204" style="shape=partialRectangle;html=1;whiteSpace=wrap;connectable=0;fillColor=none;top=0;left=0;bottom=0;right=0;overflow=hidden;strokeColor=inherit;fontSize=16;align=center;" vertex="1" parent="lwENeaAtsfyGaTis-p5Q-203">
          <mxGeometry width="15" height="30" as="geometry">
            <mxRectangle width="15" height="30" as="alternateBounds" />
          </mxGeometry>
        </mxCell>
        <mxCell id="lwENeaAtsfyGaTis-p5Q-205" value="" style="shape=partialRectangle;html=1;whiteSpace=wrap;connectable=0;fillColor=none;top=0;left=0;bottom=0;right=0;align=left;spacingLeft=6;overflow=hidden;strokeColor=inherit;fontSize=16;" vertex="1" parent="lwENeaAtsfyGaTis-p5Q-203">
          <mxGeometry x="15" width="205" height="30" as="geometry">
            <mxRectangle width="205" height="30" as="alternateBounds" />
          </mxGeometry>
        </mxCell>
        <mxCell id="lwENeaAtsfyGaTis-p5Q-206" style="shape=tableRow;horizontal=0;startSize=0;swimlaneHead=0;swimlaneBody=0;top=0;left=0;bottom=0;right=0;collapsible=0;dropTarget=0;fillColor=none;points=[[0,0.5],[1,0.5]];portConstraint=eastwest;strokeColor=inherit;fontSize=16;align=center;" vertex="1" parent="lwENeaAtsfyGaTis-p5Q-190">
          <mxGeometry y="180" width="220" height="30" as="geometry" />
        </mxCell>
        <mxCell id="lwENeaAtsfyGaTis-p5Q-207" style="shape=partialRectangle;html=1;whiteSpace=wrap;connectable=0;fillColor=none;top=0;left=0;bottom=0;right=0;overflow=hidden;strokeColor=inherit;fontSize=16;align=center;" vertex="1" parent="lwENeaAtsfyGaTis-p5Q-206">
          <mxGeometry width="15" height="30" as="geometry">
            <mxRectangle width="15" height="30" as="alternateBounds" />
          </mxGeometry>
        </mxCell>
        <mxCell id="lwENeaAtsfyGaTis-p5Q-208" value="" style="shape=partialRectangle;html=1;whiteSpace=wrap;connectable=0;fillColor=none;top=0;left=0;bottom=0;right=0;align=left;spacingLeft=6;overflow=hidden;strokeColor=inherit;fontSize=16;" vertex="1" parent="lwENeaAtsfyGaTis-p5Q-206">
          <mxGeometry x="15" width="205" height="30" as="geometry">
            <mxRectangle width="205" height="30" as="alternateBounds" />
          </mxGeometry>
        </mxCell>
        <mxCell id="lwENeaAtsfyGaTis-p5Q-209" value="On Initialization" style="shape=table;startSize=30;container=1;collapsible=0;childLayout=tableLayout;fixedRows=1;rowLines=1;fontStyle=0;strokeColor=default;fontSize=16;rounded=0;swimlaneFillColor=default;gradientColor=none;fontFamily=Courier New;gradientDirection=north;fillStyle=auto;points=[[0,0,0,0,0],[0,0.25,0,0,0],[0,0.5,0,0,0],[0,0.75,0,0,0],[0,1,0,0,0],[0.25,0,0,0,0],[0.25,1,0,0,0],[0.5,0,0,0,0],[0.5,1,0,0,0],[0.75,0,0,0,0],[0.75,1,0,0,0],[1,0,0,0,0],[1,0.25,0,0,0],[1,0.5,0,0,0],[1,0.75,0,0,0],[1,1,0,0,0]];" vertex="1" parent="lwENeaAtsfyGaTis-p5Q-188">
          <mxGeometry x="20" y="332.5" width="320" height="180" as="geometry" />
        </mxCell>
        <mxCell id="lwENeaAtsfyGaTis-p5Q-210" value="" style="shape=tableRow;horizontal=0;startSize=0;swimlaneHead=0;swimlaneBody=0;top=0;left=0;bottom=0;right=0;collapsible=0;dropTarget=0;fillColor=none;points=[[0,0.5],[1,0.5]];portConstraint=eastwest;strokeColor=inherit;fontSize=16;" vertex="1" parent="lwENeaAtsfyGaTis-p5Q-209">
          <mxGeometry y="30" width="320" height="30" as="geometry" />
        </mxCell>
        <mxCell id="lwENeaAtsfyGaTis-p5Q-211" value="1" style="shape=partialRectangle;html=1;whiteSpace=wrap;connectable=0;fillColor=none;top=0;left=0;bottom=0;right=0;overflow=hidden;pointerEvents=1;strokeColor=inherit;fontSize=16;" vertex="1" parent="lwENeaAtsfyGaTis-p5Q-210">
          <mxGeometry width="20" height="30" as="geometry">
            <mxRectangle width="20" height="30" as="alternateBounds" />
          </mxGeometry>
        </mxCell>
        <mxCell id="lwENeaAtsfyGaTis-p5Q-212" value="" style="shape=partialRectangle;html=1;whiteSpace=wrap;connectable=0;fillColor=none;top=0;left=0;bottom=0;right=0;align=left;spacingLeft=6;overflow=hidden;strokeColor=inherit;fontSize=16;" vertex="1" parent="lwENeaAtsfyGaTis-p5Q-210">
          <mxGeometry x="20" width="300" height="30" as="geometry">
            <mxRectangle width="300" height="30" as="alternateBounds" />
          </mxGeometry>
        </mxCell>
        <mxCell id="lwENeaAtsfyGaTis-p5Q-213" value="" style="shape=tableRow;horizontal=0;startSize=0;swimlaneHead=0;swimlaneBody=0;top=0;left=0;bottom=0;right=0;collapsible=0;dropTarget=0;fillColor=none;points=[[0,0.5],[1,0.5]];portConstraint=eastwest;strokeColor=inherit;fontSize=16;" vertex="1" parent="lwENeaAtsfyGaTis-p5Q-209">
          <mxGeometry y="60" width="320" height="30" as="geometry" />
        </mxCell>
        <mxCell id="lwENeaAtsfyGaTis-p5Q-214" value="2" style="shape=partialRectangle;html=1;whiteSpace=wrap;connectable=0;fillColor=none;top=0;left=0;bottom=0;right=0;overflow=hidden;strokeColor=inherit;fontSize=16;" vertex="1" parent="lwENeaAtsfyGaTis-p5Q-213">
          <mxGeometry width="20" height="30" as="geometry">
            <mxRectangle width="20" height="30" as="alternateBounds" />
          </mxGeometry>
        </mxCell>
        <mxCell id="lwENeaAtsfyGaTis-p5Q-215" value="" style="shape=partialRectangle;html=1;whiteSpace=wrap;connectable=0;fillColor=none;top=0;left=0;bottom=0;right=0;align=left;spacingLeft=6;overflow=hidden;strokeColor=inherit;fontSize=16;fontFamily=Courier New;" vertex="1" parent="lwENeaAtsfyGaTis-p5Q-213">
          <mxGeometry x="20" width="300" height="30" as="geometry">
            <mxRectangle width="300" height="30" as="alternateBounds" />
          </mxGeometry>
        </mxCell>
        <mxCell id="lwENeaAtsfyGaTis-p5Q-216" value="" style="shape=tableRow;horizontal=0;startSize=0;swimlaneHead=0;swimlaneBody=0;top=0;left=0;bottom=0;right=0;collapsible=0;dropTarget=0;fillColor=none;points=[[0,0.5],[1,0.5]];portConstraint=eastwest;strokeColor=inherit;fontSize=16;" vertex="1" parent="lwENeaAtsfyGaTis-p5Q-209">
          <mxGeometry y="90" width="320" height="30" as="geometry" />
        </mxCell>
        <mxCell id="lwENeaAtsfyGaTis-p5Q-217" value="3" style="shape=partialRectangle;html=1;whiteSpace=wrap;connectable=0;fillColor=none;top=0;left=0;bottom=0;right=0;overflow=hidden;strokeColor=inherit;fontSize=16;" vertex="1" parent="lwENeaAtsfyGaTis-p5Q-216">
          <mxGeometry width="20" height="30" as="geometry">
            <mxRectangle width="20" height="30" as="alternateBounds" />
          </mxGeometry>
        </mxCell>
        <mxCell id="lwENeaAtsfyGaTis-p5Q-218" value="" style="shape=partialRectangle;html=1;whiteSpace=wrap;connectable=0;fillColor=none;top=0;left=0;bottom=0;right=0;align=left;spacingLeft=6;overflow=hidden;strokeColor=inherit;fontSize=16;" vertex="1" parent="lwENeaAtsfyGaTis-p5Q-216">
          <mxGeometry x="20" width="300" height="30" as="geometry">
            <mxRectangle width="300" height="30" as="alternateBounds" />
          </mxGeometry>
        </mxCell>
        <mxCell id="lwENeaAtsfyGaTis-p5Q-219" style="shape=tableRow;horizontal=0;startSize=0;swimlaneHead=0;swimlaneBody=0;top=0;left=0;bottom=0;right=0;collapsible=0;dropTarget=0;fillColor=none;points=[[0,0.5],[1,0.5]];portConstraint=eastwest;strokeColor=inherit;fontSize=16;" vertex="1" parent="lwENeaAtsfyGaTis-p5Q-209">
          <mxGeometry y="120" width="320" height="30" as="geometry" />
        </mxCell>
        <mxCell id="lwENeaAtsfyGaTis-p5Q-220" value="4" style="shape=partialRectangle;html=1;whiteSpace=wrap;connectable=0;fillColor=none;top=0;left=0;bottom=0;right=0;overflow=hidden;strokeColor=inherit;fontSize=16;" vertex="1" parent="lwENeaAtsfyGaTis-p5Q-219">
          <mxGeometry width="20" height="30" as="geometry">
            <mxRectangle width="20" height="30" as="alternateBounds" />
          </mxGeometry>
        </mxCell>
        <mxCell id="lwENeaAtsfyGaTis-p5Q-221" value="" style="shape=partialRectangle;html=1;whiteSpace=wrap;connectable=0;fillColor=none;top=0;left=0;bottom=0;right=0;align=left;spacingLeft=6;overflow=hidden;strokeColor=inherit;fontSize=16;" vertex="1" parent="lwENeaAtsfyGaTis-p5Q-219">
          <mxGeometry x="20" width="300" height="30" as="geometry">
            <mxRectangle width="300" height="30" as="alternateBounds" />
          </mxGeometry>
        </mxCell>
        <mxCell id="lwENeaAtsfyGaTis-p5Q-222" style="shape=tableRow;horizontal=0;startSize=0;swimlaneHead=0;swimlaneBody=0;top=0;left=0;bottom=0;right=0;collapsible=0;dropTarget=0;fillColor=none;points=[[0,0.5],[1,0.5]];portConstraint=eastwest;strokeColor=inherit;fontSize=16;fontFamily=Courier New;" vertex="1" parent="lwENeaAtsfyGaTis-p5Q-209">
          <mxGeometry y="150" width="320" height="30" as="geometry" />
        </mxCell>
        <mxCell id="lwENeaAtsfyGaTis-p5Q-223" value="&lt;font face=&quot;Courier New&quot;&gt;5&lt;/font&gt;" style="shape=partialRectangle;html=1;whiteSpace=wrap;connectable=0;fillColor=none;top=0;left=0;bottom=0;right=0;overflow=hidden;strokeColor=inherit;fontSize=16;" vertex="1" parent="lwENeaAtsfyGaTis-p5Q-222">
          <mxGeometry width="20" height="30" as="geometry">
            <mxRectangle width="20" height="30" as="alternateBounds" />
          </mxGeometry>
        </mxCell>
        <mxCell id="lwENeaAtsfyGaTis-p5Q-224" value="" style="shape=partialRectangle;html=1;whiteSpace=wrap;connectable=0;fillColor=none;top=0;left=0;bottom=0;right=0;align=left;spacingLeft=6;overflow=hidden;strokeColor=inherit;fontSize=16;fontFamily=Courier New;" vertex="1" parent="lwENeaAtsfyGaTis-p5Q-222">
          <mxGeometry x="20" width="300" height="30" as="geometry">
            <mxRectangle width="300" height="30" as="alternateBounds" />
          </mxGeometry>
        </mxCell>
        <mxCell id="lwENeaAtsfyGaTis-p5Q-295" value="Board()" style="swimlane;fontFamily=Courier New;align=left;" vertex="1" parent="lwENeaAtsfyGaTis-p5Q-56">
          <mxGeometry x="2040" y="50" width="770" height="650" as="geometry">
            <mxRectangle x="1240" y="600" width="80" height="30" as="alternateBounds" />
          </mxGeometry>
        </mxCell>
        <mxCell id="lwENeaAtsfyGaTis-p5Q-296" value="On import" style="shape=table;startSize=30;container=1;collapsible=0;childLayout=tableLayout;fixedRows=1;rowLines=0;fontStyle=0;strokeColor=default;fontSize=16;rounded=0;swimlaneFillColor=default;gradientColor=none;fontFamily=Courier New;gradientDirection=north;fillStyle=auto;points=[[0,0,0,0,0],[0,0.25,0,0,0],[0,0.5,0,0,0],[0,0.75,0,0,0],[0,1,0,0,0],[0.25,0,0,0,0],[0.25,1,0,0,0],[0.5,0,0,0,0],[0.5,1,0,0,0],[0.75,0,0,0,0],[0.75,1,0,0,0],[1,0,0,0,0],[1,0.25,0,0,0],[1,0.5,0,0,0],[1,0.75,0,0,0],[1,1,0,0,0]];swimlaneLine=1;columnLines=0;noLabel=0;align=center;" vertex="1" parent="lwENeaAtsfyGaTis-p5Q-295">
          <mxGeometry x="20" y="48" width="220" height="232" as="geometry" />
        </mxCell>
        <mxCell id="lwENeaAtsfyGaTis-p5Q-297" value="" style="shape=tableRow;horizontal=0;startSize=0;swimlaneHead=0;swimlaneBody=0;top=0;left=0;bottom=0;right=0;collapsible=0;dropTarget=0;fillColor=none;points=[[0,0.5],[1,0.5]];portConstraint=eastwest;strokeColor=inherit;fontSize=16;align=center;" vertex="1" parent="lwENeaAtsfyGaTis-p5Q-296">
          <mxGeometry y="30" width="220" height="30" as="geometry" />
        </mxCell>
        <mxCell id="lwENeaAtsfyGaTis-p5Q-298" value="" style="shape=partialRectangle;html=1;whiteSpace=wrap;connectable=0;fillColor=none;top=0;left=0;bottom=0;right=0;overflow=hidden;pointerEvents=1;strokeColor=inherit;fontSize=16;align=center;" vertex="1" parent="lwENeaAtsfyGaTis-p5Q-297">
          <mxGeometry width="15" height="30" as="geometry">
            <mxRectangle width="15" height="30" as="alternateBounds" />
          </mxGeometry>
        </mxCell>
        <mxCell id="lwENeaAtsfyGaTis-p5Q-299" value="" style="shape=partialRectangle;html=1;whiteSpace=wrap;connectable=0;fillColor=none;top=0;left=0;bottom=0;right=0;align=left;spacingLeft=6;overflow=hidden;strokeColor=inherit;fontSize=16;" vertex="1" parent="lwENeaAtsfyGaTis-p5Q-297">
          <mxGeometry x="15" width="205" height="30" as="geometry">
            <mxRectangle width="205" height="30" as="alternateBounds" />
          </mxGeometry>
        </mxCell>
        <mxCell id="lwENeaAtsfyGaTis-p5Q-300" value="" style="shape=tableRow;horizontal=0;startSize=0;swimlaneHead=0;swimlaneBody=0;top=0;left=0;bottom=0;right=0;collapsible=0;dropTarget=0;fillColor=none;points=[[0,0.5],[1,0.5]];portConstraint=eastwest;strokeColor=inherit;fontSize=16;align=center;" vertex="1" parent="lwENeaAtsfyGaTis-p5Q-296">
          <mxGeometry y="60" width="220" height="30" as="geometry" />
        </mxCell>
        <mxCell id="lwENeaAtsfyGaTis-p5Q-301" value="" style="shape=partialRectangle;html=1;whiteSpace=wrap;connectable=0;fillColor=none;top=0;left=0;bottom=0;right=0;overflow=hidden;strokeColor=inherit;fontSize=16;align=center;" vertex="1" parent="lwENeaAtsfyGaTis-p5Q-300">
          <mxGeometry width="15" height="30" as="geometry">
            <mxRectangle width="15" height="30" as="alternateBounds" />
          </mxGeometry>
        </mxCell>
        <mxCell id="lwENeaAtsfyGaTis-p5Q-302" value="" style="shape=partialRectangle;html=1;whiteSpace=wrap;connectable=0;fillColor=none;top=0;left=0;bottom=0;right=0;align=left;spacingLeft=6;overflow=hidden;strokeColor=inherit;fontSize=16;" vertex="1" parent="lwENeaAtsfyGaTis-p5Q-300">
          <mxGeometry x="15" width="205" height="30" as="geometry">
            <mxRectangle width="205" height="30" as="alternateBounds" />
          </mxGeometry>
        </mxCell>
        <mxCell id="lwENeaAtsfyGaTis-p5Q-303" value="" style="shape=tableRow;horizontal=0;startSize=0;swimlaneHead=0;swimlaneBody=0;top=0;left=0;bottom=0;right=0;collapsible=0;dropTarget=0;fillColor=none;points=[[0,0.5],[1,0.5]];portConstraint=eastwest;strokeColor=inherit;fontSize=16;align=center;" vertex="1" parent="lwENeaAtsfyGaTis-p5Q-296">
          <mxGeometry y="90" width="220" height="30" as="geometry" />
        </mxCell>
        <mxCell id="lwENeaAtsfyGaTis-p5Q-304" value="" style="shape=partialRectangle;html=1;whiteSpace=wrap;connectable=0;fillColor=none;top=0;left=0;bottom=0;right=0;overflow=hidden;strokeColor=inherit;fontSize=16;align=center;" vertex="1" parent="lwENeaAtsfyGaTis-p5Q-303">
          <mxGeometry width="15" height="30" as="geometry">
            <mxRectangle width="15" height="30" as="alternateBounds" />
          </mxGeometry>
        </mxCell>
        <mxCell id="lwENeaAtsfyGaTis-p5Q-305" value="" style="shape=partialRectangle;html=1;whiteSpace=wrap;connectable=0;fillColor=none;top=0;left=0;bottom=0;right=0;align=left;spacingLeft=6;overflow=hidden;strokeColor=inherit;fontSize=16;" vertex="1" parent="lwENeaAtsfyGaTis-p5Q-303">
          <mxGeometry x="15" width="205" height="30" as="geometry">
            <mxRectangle width="205" height="30" as="alternateBounds" />
          </mxGeometry>
        </mxCell>
        <mxCell id="lwENeaAtsfyGaTis-p5Q-306" style="shape=tableRow;horizontal=0;startSize=0;swimlaneHead=0;swimlaneBody=0;top=0;left=0;bottom=0;right=0;collapsible=0;dropTarget=0;fillColor=none;points=[[0,0.5],[1,0.5]];portConstraint=eastwest;strokeColor=inherit;fontSize=16;align=center;" vertex="1" parent="lwENeaAtsfyGaTis-p5Q-296">
          <mxGeometry y="120" width="220" height="30" as="geometry" />
        </mxCell>
        <mxCell id="lwENeaAtsfyGaTis-p5Q-307" value="" style="shape=partialRectangle;html=1;whiteSpace=wrap;connectable=0;fillColor=none;top=0;left=0;bottom=0;right=0;overflow=hidden;strokeColor=inherit;fontSize=16;align=center;" vertex="1" parent="lwENeaAtsfyGaTis-p5Q-306">
          <mxGeometry width="15" height="30" as="geometry">
            <mxRectangle width="15" height="30" as="alternateBounds" />
          </mxGeometry>
        </mxCell>
        <mxCell id="lwENeaAtsfyGaTis-p5Q-308" value="" style="shape=partialRectangle;html=1;whiteSpace=wrap;connectable=0;fillColor=none;top=0;left=0;bottom=0;right=0;align=left;spacingLeft=6;overflow=hidden;strokeColor=inherit;fontSize=16;" vertex="1" parent="lwENeaAtsfyGaTis-p5Q-306">
          <mxGeometry x="15" width="205" height="30" as="geometry">
            <mxRectangle width="205" height="30" as="alternateBounds" />
          </mxGeometry>
        </mxCell>
        <mxCell id="lwENeaAtsfyGaTis-p5Q-309" style="shape=tableRow;horizontal=0;startSize=0;swimlaneHead=0;swimlaneBody=0;top=0;left=0;bottom=0;right=0;collapsible=0;dropTarget=0;fillColor=none;points=[[0,0.5],[1,0.5]];portConstraint=eastwest;strokeColor=inherit;fontSize=16;align=center;" vertex="1" parent="lwENeaAtsfyGaTis-p5Q-296">
          <mxGeometry y="150" width="220" height="30" as="geometry" />
        </mxCell>
        <mxCell id="lwENeaAtsfyGaTis-p5Q-310" style="shape=partialRectangle;html=1;whiteSpace=wrap;connectable=0;fillColor=none;top=0;left=0;bottom=0;right=0;overflow=hidden;strokeColor=inherit;fontSize=16;align=center;" vertex="1" parent="lwENeaAtsfyGaTis-p5Q-309">
          <mxGeometry width="15" height="30" as="geometry">
            <mxRectangle width="15" height="30" as="alternateBounds" />
          </mxGeometry>
        </mxCell>
        <mxCell id="lwENeaAtsfyGaTis-p5Q-311" value="" style="shape=partialRectangle;html=1;whiteSpace=wrap;connectable=0;fillColor=none;top=0;left=0;bottom=0;right=0;align=left;spacingLeft=6;overflow=hidden;strokeColor=inherit;fontSize=16;" vertex="1" parent="lwENeaAtsfyGaTis-p5Q-309">
          <mxGeometry x="15" width="205" height="30" as="geometry">
            <mxRectangle width="205" height="30" as="alternateBounds" />
          </mxGeometry>
        </mxCell>
        <mxCell id="lwENeaAtsfyGaTis-p5Q-312" style="shape=tableRow;horizontal=0;startSize=0;swimlaneHead=0;swimlaneBody=0;top=0;left=0;bottom=0;right=0;collapsible=0;dropTarget=0;fillColor=none;points=[[0,0.5],[1,0.5]];portConstraint=eastwest;strokeColor=inherit;fontSize=16;align=center;" vertex="1" parent="lwENeaAtsfyGaTis-p5Q-296">
          <mxGeometry y="180" width="220" height="30" as="geometry" />
        </mxCell>
        <mxCell id="lwENeaAtsfyGaTis-p5Q-313" style="shape=partialRectangle;html=1;whiteSpace=wrap;connectable=0;fillColor=none;top=0;left=0;bottom=0;right=0;overflow=hidden;strokeColor=inherit;fontSize=16;align=center;" vertex="1" parent="lwENeaAtsfyGaTis-p5Q-312">
          <mxGeometry width="15" height="30" as="geometry">
            <mxRectangle width="15" height="30" as="alternateBounds" />
          </mxGeometry>
        </mxCell>
        <mxCell id="lwENeaAtsfyGaTis-p5Q-314" value="" style="shape=partialRectangle;html=1;whiteSpace=wrap;connectable=0;fillColor=none;top=0;left=0;bottom=0;right=0;align=left;spacingLeft=6;overflow=hidden;strokeColor=inherit;fontSize=16;" vertex="1" parent="lwENeaAtsfyGaTis-p5Q-312">
          <mxGeometry x="15" width="205" height="30" as="geometry">
            <mxRectangle width="205" height="30" as="alternateBounds" />
          </mxGeometry>
        </mxCell>
        <mxCell id="lwENeaAtsfyGaTis-p5Q-315" value="On Initialization" style="shape=table;startSize=30;container=1;collapsible=0;childLayout=tableLayout;fixedRows=1;rowLines=1;fontStyle=0;strokeColor=default;fontSize=16;rounded=0;swimlaneFillColor=default;gradientColor=none;fontFamily=Courier New;gradientDirection=north;fillStyle=auto;points=[[0,0,0,0,0],[0,0.25,0,0,0],[0,0.5,0,0,0],[0,0.75,0,0,0],[0,1,0,0,0],[0.25,0,0,0,0],[0.25,1,0,0,0],[0.5,0,0,0,0],[0.5,1,0,0,0],[0.75,0,0,0,0],[0.75,1,0,0,0],[1,0,0,0,0],[1,0.25,0,0,0],[1,0.5,0,0,0],[1,0.75,0,0,0],[1,1,0,0,0]];" vertex="1" parent="lwENeaAtsfyGaTis-p5Q-295">
          <mxGeometry x="20" y="332.5" width="320" height="180" as="geometry" />
        </mxCell>
        <mxCell id="lwENeaAtsfyGaTis-p5Q-316" value="" style="shape=tableRow;horizontal=0;startSize=0;swimlaneHead=0;swimlaneBody=0;top=0;left=0;bottom=0;right=0;collapsible=0;dropTarget=0;fillColor=none;points=[[0,0.5],[1,0.5]];portConstraint=eastwest;strokeColor=inherit;fontSize=16;" vertex="1" parent="lwENeaAtsfyGaTis-p5Q-315">
          <mxGeometry y="30" width="320" height="30" as="geometry" />
        </mxCell>
        <mxCell id="lwENeaAtsfyGaTis-p5Q-317" value="1" style="shape=partialRectangle;html=1;whiteSpace=wrap;connectable=0;fillColor=none;top=0;left=0;bottom=0;right=0;overflow=hidden;pointerEvents=1;strokeColor=inherit;fontSize=16;" vertex="1" parent="lwENeaAtsfyGaTis-p5Q-316">
          <mxGeometry width="20" height="30" as="geometry">
            <mxRectangle width="20" height="30" as="alternateBounds" />
          </mxGeometry>
        </mxCell>
        <mxCell id="lwENeaAtsfyGaTis-p5Q-318" value="" style="shape=partialRectangle;html=1;whiteSpace=wrap;connectable=0;fillColor=none;top=0;left=0;bottom=0;right=0;align=left;spacingLeft=6;overflow=hidden;strokeColor=inherit;fontSize=16;" vertex="1" parent="lwENeaAtsfyGaTis-p5Q-316">
          <mxGeometry x="20" width="300" height="30" as="geometry">
            <mxRectangle width="300" height="30" as="alternateBounds" />
          </mxGeometry>
        </mxCell>
        <mxCell id="lwENeaAtsfyGaTis-p5Q-319" value="" style="shape=tableRow;horizontal=0;startSize=0;swimlaneHead=0;swimlaneBody=0;top=0;left=0;bottom=0;right=0;collapsible=0;dropTarget=0;fillColor=none;points=[[0,0.5],[1,0.5]];portConstraint=eastwest;strokeColor=inherit;fontSize=16;" vertex="1" parent="lwENeaAtsfyGaTis-p5Q-315">
          <mxGeometry y="60" width="320" height="30" as="geometry" />
        </mxCell>
        <mxCell id="lwENeaAtsfyGaTis-p5Q-320" value="2" style="shape=partialRectangle;html=1;whiteSpace=wrap;connectable=0;fillColor=none;top=0;left=0;bottom=0;right=0;overflow=hidden;strokeColor=inherit;fontSize=16;" vertex="1" parent="lwENeaAtsfyGaTis-p5Q-319">
          <mxGeometry width="20" height="30" as="geometry">
            <mxRectangle width="20" height="30" as="alternateBounds" />
          </mxGeometry>
        </mxCell>
        <mxCell id="lwENeaAtsfyGaTis-p5Q-321" value="" style="shape=partialRectangle;html=1;whiteSpace=wrap;connectable=0;fillColor=none;top=0;left=0;bottom=0;right=0;align=left;spacingLeft=6;overflow=hidden;strokeColor=inherit;fontSize=16;fontFamily=Courier New;" vertex="1" parent="lwENeaAtsfyGaTis-p5Q-319">
          <mxGeometry x="20" width="300" height="30" as="geometry">
            <mxRectangle width="300" height="30" as="alternateBounds" />
          </mxGeometry>
        </mxCell>
        <mxCell id="lwENeaAtsfyGaTis-p5Q-322" value="" style="shape=tableRow;horizontal=0;startSize=0;swimlaneHead=0;swimlaneBody=0;top=0;left=0;bottom=0;right=0;collapsible=0;dropTarget=0;fillColor=none;points=[[0,0.5],[1,0.5]];portConstraint=eastwest;strokeColor=inherit;fontSize=16;" vertex="1" parent="lwENeaAtsfyGaTis-p5Q-315">
          <mxGeometry y="90" width="320" height="30" as="geometry" />
        </mxCell>
        <mxCell id="lwENeaAtsfyGaTis-p5Q-323" value="3" style="shape=partialRectangle;html=1;whiteSpace=wrap;connectable=0;fillColor=none;top=0;left=0;bottom=0;right=0;overflow=hidden;strokeColor=inherit;fontSize=16;" vertex="1" parent="lwENeaAtsfyGaTis-p5Q-322">
          <mxGeometry width="20" height="30" as="geometry">
            <mxRectangle width="20" height="30" as="alternateBounds" />
          </mxGeometry>
        </mxCell>
        <mxCell id="lwENeaAtsfyGaTis-p5Q-324" value="" style="shape=partialRectangle;html=1;whiteSpace=wrap;connectable=0;fillColor=none;top=0;left=0;bottom=0;right=0;align=left;spacingLeft=6;overflow=hidden;strokeColor=inherit;fontSize=16;" vertex="1" parent="lwENeaAtsfyGaTis-p5Q-322">
          <mxGeometry x="20" width="300" height="30" as="geometry">
            <mxRectangle width="300" height="30" as="alternateBounds" />
          </mxGeometry>
        </mxCell>
        <mxCell id="lwENeaAtsfyGaTis-p5Q-325" style="shape=tableRow;horizontal=0;startSize=0;swimlaneHead=0;swimlaneBody=0;top=0;left=0;bottom=0;right=0;collapsible=0;dropTarget=0;fillColor=none;points=[[0,0.5],[1,0.5]];portConstraint=eastwest;strokeColor=inherit;fontSize=16;" vertex="1" parent="lwENeaAtsfyGaTis-p5Q-315">
          <mxGeometry y="120" width="320" height="30" as="geometry" />
        </mxCell>
        <mxCell id="lwENeaAtsfyGaTis-p5Q-326" value="4" style="shape=partialRectangle;html=1;whiteSpace=wrap;connectable=0;fillColor=none;top=0;left=0;bottom=0;right=0;overflow=hidden;strokeColor=inherit;fontSize=16;" vertex="1" parent="lwENeaAtsfyGaTis-p5Q-325">
          <mxGeometry width="20" height="30" as="geometry">
            <mxRectangle width="20" height="30" as="alternateBounds" />
          </mxGeometry>
        </mxCell>
        <mxCell id="lwENeaAtsfyGaTis-p5Q-327" value="" style="shape=partialRectangle;html=1;whiteSpace=wrap;connectable=0;fillColor=none;top=0;left=0;bottom=0;right=0;align=left;spacingLeft=6;overflow=hidden;strokeColor=inherit;fontSize=16;" vertex="1" parent="lwENeaAtsfyGaTis-p5Q-325">
          <mxGeometry x="20" width="300" height="30" as="geometry">
            <mxRectangle width="300" height="30" as="alternateBounds" />
          </mxGeometry>
        </mxCell>
        <mxCell id="lwENeaAtsfyGaTis-p5Q-328" style="shape=tableRow;horizontal=0;startSize=0;swimlaneHead=0;swimlaneBody=0;top=0;left=0;bottom=0;right=0;collapsible=0;dropTarget=0;fillColor=none;points=[[0,0.5],[1,0.5]];portConstraint=eastwest;strokeColor=inherit;fontSize=16;fontFamily=Courier New;" vertex="1" parent="lwENeaAtsfyGaTis-p5Q-315">
          <mxGeometry y="150" width="320" height="30" as="geometry" />
        </mxCell>
        <mxCell id="lwENeaAtsfyGaTis-p5Q-329" value="&lt;font face=&quot;Courier New&quot;&gt;5&lt;/font&gt;" style="shape=partialRectangle;html=1;whiteSpace=wrap;connectable=0;fillColor=none;top=0;left=0;bottom=0;right=0;overflow=hidden;strokeColor=inherit;fontSize=16;" vertex="1" parent="lwENeaAtsfyGaTis-p5Q-328">
          <mxGeometry width="20" height="30" as="geometry">
            <mxRectangle width="20" height="30" as="alternateBounds" />
          </mxGeometry>
        </mxCell>
        <mxCell id="lwENeaAtsfyGaTis-p5Q-330" value="" style="shape=partialRectangle;html=1;whiteSpace=wrap;connectable=0;fillColor=none;top=0;left=0;bottom=0;right=0;align=left;spacingLeft=6;overflow=hidden;strokeColor=inherit;fontSize=16;fontFamily=Courier New;" vertex="1" parent="lwENeaAtsfyGaTis-p5Q-328">
          <mxGeometry x="20" width="300" height="30" as="geometry">
            <mxRectangle width="300" height="30" as="alternateBounds" />
          </mxGeometry>
        </mxCell>
        <mxCell id="lwENeaAtsfyGaTis-p5Q-332" style="edgeStyle=orthogonalEdgeStyle;rounded=1;orthogonalLoop=1;jettySize=auto;html=1;entryX=-0.001;entryY=0.055;entryDx=0;entryDy=0;entryPerimeter=0;strokeColor=#666666;flowAnimation=1;exitX=1;exitY=0.5;exitDx=0;exitDy=0;curved=0;" edge="1" parent="lwENeaAtsfyGaTis-p5Q-56" source="lwENeaAtsfyGaTis-p5Q-76" target="lwENeaAtsfyGaTis-p5Q-296">
          <mxGeometry relative="1" as="geometry">
            <mxPoint x="270" y="140" as="sourcePoint" />
            <Array as="points">
              <mxPoint x="280" y="113" />
              <mxPoint x="280" y="40" />
              <mxPoint x="2020" y="40" />
              <mxPoint x="2020" y="111" />
            </Array>
          </mxGeometry>
        </mxCell>
        <mxCell id="lwENeaAtsfyGaTis-p5Q-333" style="edgeStyle=orthogonalEdgeStyle;rounded=1;orthogonalLoop=1;jettySize=auto;html=1;entryX=-0.006;entryY=0.06;entryDx=0;entryDy=0;entryPerimeter=0;strokeColor=#666666;curved=0;flowAnimation=1;" edge="1" parent="lwENeaAtsfyGaTis-p5Q-56" source="lwENeaAtsfyGaTis-p5Q-82" target="lwENeaAtsfyGaTis-p5Q-190">
          <mxGeometry relative="1" as="geometry">
            <Array as="points">
              <mxPoint x="280" y="173" />
              <mxPoint x="280" y="40" />
              <mxPoint x="1100" y="40" />
              <mxPoint x="1100" y="112" />
            </Array>
          </mxGeometry>
        </mxCell>
        <mxCell id="lwENeaAtsfyGaTis-p5Q-334" style="edgeStyle=orthogonalEdgeStyle;rounded=1;orthogonalLoop=1;jettySize=auto;html=1;entryX=-0.006;entryY=0.079;entryDx=0;entryDy=0;entryPerimeter=0;flowAnimation=1;fillColor=#e51400;strokeColor=#B20000;curved=0;" edge="1" parent="lwENeaAtsfyGaTis-p5Q-56" source="lwENeaAtsfyGaTis-p5Q-185" target="lwENeaAtsfyGaTis-p5Q-209">
          <mxGeometry relative="1" as="geometry">
            <Array as="points">
              <mxPoint x="440" y="1035" />
              <mxPoint x="440" y="397" />
            </Array>
          </mxGeometry>
        </mxCell>
        <mxCell id="lwENeaAtsfyGaTis-p5Q-335" style="edgeStyle=orthogonalEdgeStyle;rounded=1;orthogonalLoop=1;jettySize=auto;html=1;fillColor=#e51400;strokeColor=#B20000;flowAnimation=1;exitX=1;exitY=0.5;exitDx=0;exitDy=0;" edge="1" parent="lwENeaAtsfyGaTis-p5Q-56" source="lwENeaAtsfyGaTis-p5Q-186" target="lwENeaAtsfyGaTis-p5Q-315">
          <mxGeometry relative="1" as="geometry">
            <mxPoint x="480" y="1055" as="sourcePoint" />
            <mxPoint x="1930" y="395" as="targetPoint" />
            <Array as="points">
              <mxPoint x="440" y="1055" />
              <mxPoint x="440" y="395" />
              <mxPoint x="1100" y="395" />
              <mxPoint x="1100" y="40" />
              <mxPoint x="2020" y="40" />
              <mxPoint x="2020" y="395" />
            </Array>
          </mxGeometry>
        </mxCell>
        <mxCell id="lwENeaAtsfyGaTis-p5Q-58" style="edgeStyle=orthogonalEdgeStyle;rounded=1;orthogonalLoop=1;jettySize=auto;html=1;flowAnimation=1;curved=0;fillColor=#e51400;strokeColor=#B20000;exitX=1;exitY=0.5;exitDx=0;exitDy=0;entryX=0;entryY=0.5;entryDx=0;entryDy=0;" edge="1" parent="lwENeaAtsfyGaTis-p5Q-7" source="lwENeaAtsfyGaTis-p5Q-34" target="lwENeaAtsfyGaTis-p5Q-54">
          <mxGeometry relative="1" as="geometry">
            <mxPoint x="360" y="164" as="sourcePoint" />
            <mxPoint x="410" y="590" as="targetPoint" />
            <Array as="points">
              <mxPoint x="380" y="134" />
              <mxPoint x="380" y="200" />
              <mxPoint x="40" y="200" />
              <mxPoint x="40" y="400" />
            </Array>
          </mxGeometry>
        </mxCell>
        <mxCell id="lwENeaAtsfyGaTis-p5Q-59" style="edgeStyle=orthogonalEdgeStyle;rounded=1;orthogonalLoop=1;jettySize=auto;html=1;curved=0;flowAnimation=1;fillColor=#008a00;strokeColor=#005700;entryX=0;entryY=0.5;entryDx=0;entryDy=0;" edge="1" parent="lwENeaAtsfyGaTis-p5Q-7" source="lwENeaAtsfyGaTis-p5Q-45" target="lwENeaAtsfyGaTis-p5Q-137">
          <mxGeometry relative="1" as="geometry">
            <mxPoint x="880" y="50" as="targetPoint" />
            <Array as="points">
              <mxPoint x="450" y="323" />
              <mxPoint x="450" y="545" />
            </Array>
          </mxGeometry>
        </mxCell>
        <mxCell id="lwENeaAtsfyGaTis-p5Q-174" value="&lt;font style=&quot;color: rgb(0, 102, 0);&quot; face=&quot;Courier New&quot;&gt;( int )&lt;/font&gt;" style="edgeLabel;html=1;align=center;verticalAlign=middle;resizable=0;points=[];" vertex="1" connectable="0" parent="lwENeaAtsfyGaTis-p5Q-59">
          <mxGeometry x="-0.7981" y="-2" relative="1" as="geometry">
            <mxPoint x="1" as="offset" />
          </mxGeometry>
        </mxCell>
        <mxCell id="lwENeaAtsfyGaTis-p5Q-60" style="edgeStyle=orthogonalEdgeStyle;rounded=1;orthogonalLoop=1;jettySize=auto;html=1;flowAnimation=1;curved=0;fillColor=#60a917;strokeColor=#2D7600;entryX=0;entryY=0.5;entryDx=0;entryDy=0;" edge="1" parent="lwENeaAtsfyGaTis-p5Q-7" source="lwENeaAtsfyGaTis-p5Q-49" target="lwENeaAtsfyGaTis-p5Q-137">
          <mxGeometry relative="1" as="geometry">
            <mxPoint x="570" y="78" as="targetPoint" />
            <Array as="points">
              <mxPoint x="450" y="347" />
              <mxPoint x="450" y="545" />
            </Array>
          </mxGeometry>
        </mxCell>
        <mxCell id="lwENeaAtsfyGaTis-p5Q-178" value="&lt;font style=&quot;color: rgb(0, 102, 0);&quot; face=&quot;Courier New&quot;&gt;( int )&lt;/font&gt;" style="edgeLabel;html=1;align=center;verticalAlign=middle;resizable=0;points=[];" vertex="1" connectable="0" parent="lwENeaAtsfyGaTis-p5Q-60">
          <mxGeometry x="-0.77" y="-1" relative="1" as="geometry">
            <mxPoint as="offset" />
          </mxGeometry>
        </mxCell>
        <mxCell id="lwENeaAtsfyGaTis-p5Q-143" value="players = args.players" style="text;strokeColor=none;fillColor=none;align=left;verticalAlign=middle;spacingLeft=4;spacingRight=4;overflow=hidden;points=[[0,0.5],[1,0.5]];portConstraint=eastwest;rotatable=0;whiteSpace=wrap;html=1;fontFamily=Courier New;" vertex="1" parent="lwENeaAtsfyGaTis-p5Q-7">
          <mxGeometry x="80" y="360" width="190" height="30" as="geometry" />
        </mxCell>
        <mxCell id="lwENeaAtsfyGaTis-p5Q-171" style="edgeStyle=orthogonalEdgeStyle;rounded=1;orthogonalLoop=1;jettySize=auto;html=1;entryX=0;entryY=0.5;entryDx=0;entryDy=0;fillColor=#008a00;strokeColor=#005700;flowAnimation=1;curved=0;" edge="1" parent="lwENeaAtsfyGaTis-p5Q-7" source="lwENeaAtsfyGaTis-p5Q-148" target="lwENeaAtsfyGaTis-p5Q-49">
          <mxGeometry relative="1" as="geometry">
            <Array as="points">
              <mxPoint x="290" y="543" />
              <mxPoint x="290" y="500" />
              <mxPoint x="60" y="500" />
              <mxPoint x="60" y="348" />
            </Array>
          </mxGeometry>
        </mxCell>
        <mxCell id="lwENeaAtsfyGaTis-p5Q-172" style="edgeStyle=orthogonalEdgeStyle;rounded=1;orthogonalLoop=1;jettySize=auto;html=1;entryX=0;entryY=0.5;entryDx=0;entryDy=0;fillColor=#008a00;strokeColor=#005700;flowAnimation=1;" edge="1" parent="lwENeaAtsfyGaTis-p5Q-7" source="lwENeaAtsfyGaTis-p5Q-148" target="lwENeaAtsfyGaTis-p5Q-143">
          <mxGeometry relative="1" as="geometry">
            <Array as="points">
              <mxPoint x="290" y="543" />
              <mxPoint x="290" y="500" />
              <mxPoint x="60" y="500" />
              <mxPoint x="60" y="375" />
            </Array>
          </mxGeometry>
        </mxCell>
        <mxCell id="lwENeaAtsfyGaTis-p5Q-148" value="&lt;font face=&quot;Courier New&quot;&gt;get_args&lt;/font&gt;" style="shape=ext;double=1;rounded=0;whiteSpace=wrap;html=1;" vertex="1" parent="lwENeaAtsfyGaTis-p5Q-7">
          <mxGeometry x="100" y="525" width="145" height="35" as="geometry" />
        </mxCell>
        <mxCell id="lwENeaAtsfyGaTis-p5Q-153" style="edgeStyle=orthogonalEdgeStyle;rounded=1;orthogonalLoop=1;jettySize=auto;html=1;fillColor=#0050ef;strokeColor=#001DBC;flowAnimation=1;curved=0;entryX=0;entryY=0.5;entryDx=0;entryDy=0;" edge="1" parent="lwENeaAtsfyGaTis-p5Q-7" source="lwENeaAtsfyGaTis-p5Q-143" target="lwENeaAtsfyGaTis-p5Q-125">
          <mxGeometry relative="1" as="geometry">
            <mxPoint x="440" y="460" as="targetPoint" />
            <Array as="points">
              <mxPoint x="450" y="375" />
              <mxPoint x="450" y="515" />
            </Array>
          </mxGeometry>
        </mxCell>
        <mxCell id="lwENeaAtsfyGaTis-p5Q-173" value="&lt;font style=&quot;color: rgb(0, 0, 255);&quot; face=&quot;Courier New&quot;&gt;( List[String] )&lt;/font&gt;" style="edgeLabel;html=1;align=center;verticalAlign=middle;resizable=0;points=[];" vertex="1" connectable="0" parent="lwENeaAtsfyGaTis-p5Q-153">
          <mxGeometry x="-0.8853" y="-1" relative="1" as="geometry">
            <mxPoint x="48" y="-1" as="offset" />
          </mxGeometry>
        </mxCell>
        <mxCell id="lwENeaAtsfyGaTis-p5Q-168" value="" style="endArrow=classic;html=1;rounded=1;exitX=1;exitY=0.5;exitDx=0;exitDy=0;fillColor=#008a00;strokeColor=#005700;edgeStyle=orthogonalEdgeStyle;flowAnimation=1;entryX=0;entryY=0.5;entryDx=0;entryDy=0;" edge="1" parent="lwENeaAtsfyGaTis-p5Q-7" source="lwENeaAtsfyGaTis-p5Q-148" target="lwENeaAtsfyGaTis-p5Q-45">
          <mxGeometry relative="1" as="geometry">
            <mxPoint x="800" y="300" as="sourcePoint" />
            <mxPoint x="50" y="320" as="targetPoint" />
            <Array as="points">
              <mxPoint x="290" y="543" />
              <mxPoint x="290" y="500" />
              <mxPoint x="60" y="500" />
              <mxPoint x="60" y="323" />
            </Array>
          </mxGeometry>
        </mxCell>
        <mxCell id="lwENeaAtsfyGaTis-p5Q-169" value="&lt;font style=&quot;color: rgb(0, 102, 0);&quot; face=&quot;Courier New&quot;&gt;&amp;lt;class &#39;argparse.Namespace&lt;/font&gt;&#39;&amp;gt;" style="edgeLabel;resizable=0;html=1;;align=center;verticalAlign=middle;" connectable="0" vertex="1" parent="lwENeaAtsfyGaTis-p5Q-168">
          <mxGeometry relative="1" as="geometry">
            <mxPoint x="53" as="offset" />
          </mxGeometry>
        </mxCell>
        <mxCell id="lwENeaAtsfyGaTis-p5Q-180" style="edgeStyle=orthogonalEdgeStyle;rounded=1;orthogonalLoop=1;jettySize=auto;html=1;flowAnimation=1;strokeColor=#666666;entryX=-0.009;entryY=0.05;entryDx=0;entryDy=0;entryPerimeter=0;" edge="1" parent="lwENeaAtsfyGaTis-p5Q-7" source="lwENeaAtsfyGaTis-p5Q-28" target="lwENeaAtsfyGaTis-p5Q-72">
          <mxGeometry relative="1" as="geometry">
            <mxPoint x="450" y="160" as="targetPoint" />
            <Array as="points">
              <mxPoint x="410" y="74" />
              <mxPoint x="410" y="130" />
            </Array>
          </mxGeometry>
        </mxCell>
        <mxCell id="lwENeaAtsfyGaTis-p5Q-189" style="edgeStyle=orthogonalEdgeStyle;rounded=1;orthogonalLoop=1;jettySize=auto;html=1;entryX=-0.001;entryY=0.079;entryDx=0;entryDy=0;entryPerimeter=0;fillColor=#e51400;strokeColor=#B20000;curved=0;flowAnimation=1;" edge="1" parent="lwENeaAtsfyGaTis-p5Q-7" source="lwENeaAtsfyGaTis-p5Q-54" target="lwENeaAtsfyGaTis-p5Q-115">
          <mxGeometry relative="1" as="geometry">
            <Array as="points">
              <mxPoint x="450" y="400" />
              <mxPoint x="450" y="394" />
            </Array>
          </mxGeometry>
        </mxCell>
        <mxCell id="lwENeaAtsfyGaTis-p5Q-9" value="Actor" style="shape=umlActor;verticalLabelPosition=bottom;verticalAlign=top;html=1;outlineConnect=0;" vertex="1" parent="1">
          <mxGeometry x="150" y="120" width="100" height="190" as="geometry" />
        </mxCell>
        <mxCell id="lwENeaAtsfyGaTis-p5Q-10" value="Command line" style="swimlane;fontStyle=0;childLayout=stackLayout;horizontal=1;startSize=26;fillColor=none;horizontalStack=0;resizeParent=1;resizeParentMax=0;resizeLast=0;collapsible=1;marginBottom=0;html=1;" vertex="1" parent="1">
          <mxGeometry x="300" y="150" width="220" height="104" as="geometry" />
        </mxCell>
        <mxCell id="lwENeaAtsfyGaTis-p5Q-11" value="&amp;nbsp;-h --height (Optional, Base: 2500)&amp;nbsp;" style="text;strokeColor=none;fillColor=none;align=left;verticalAlign=top;spacingLeft=4;spacingRight=4;overflow=hidden;rotatable=0;points=[[0,0.5],[1,0.5]];portConstraint=eastwest;whiteSpace=wrap;html=1;" vertex="1" parent="lwENeaAtsfyGaTis-p5Q-10">
          <mxGeometry y="26" width="220" height="26" as="geometry" />
        </mxCell>
        <mxCell id="lwENeaAtsfyGaTis-p5Q-12" value="-w --width (Optional, Base: 3400)" style="text;strokeColor=none;fillColor=none;align=left;verticalAlign=top;spacingLeft=4;spacingRight=4;overflow=hidden;rotatable=0;points=[[0,0.5],[1,0.5]];portConstraint=eastwest;whiteSpace=wrap;html=1;" vertex="1" parent="lwENeaAtsfyGaTis-p5Q-10">
          <mxGeometry y="52" width="220" height="26" as="geometry" />
        </mxCell>
        <mxCell id="lwENeaAtsfyGaTis-p5Q-142" value="-p --players (Player names)" style="text;strokeColor=none;fillColor=none;align=left;verticalAlign=top;spacingLeft=4;spacingRight=4;overflow=hidden;rotatable=0;points=[[0,0.5],[1,0.5]];portConstraint=eastwest;whiteSpace=wrap;html=1;" vertex="1" parent="lwENeaAtsfyGaTis-p5Q-10">
          <mxGeometry y="78" width="220" height="26" as="geometry" />
        </mxCell>
        <mxCell id="lwENeaAtsfyGaTis-p5Q-24" value="" style="endArrow=classic;html=1;rounded=1;edgeStyle=orthogonalEdgeStyle;curved=0;flowAnimation=1;entryX=0;entryY=0.5;entryDx=0;entryDy=0;exitX=1;exitY=0.5;exitDx=0;exitDy=0;" edge="1" parent="1" source="lwENeaAtsfyGaTis-p5Q-12" target="lwENeaAtsfyGaTis-p5Q-31">
          <mxGeometry width="50" height="50" relative="1" as="geometry">
            <mxPoint x="560" y="190" as="sourcePoint" />
            <mxPoint x="630" y="200" as="targetPoint" />
            <Array as="points">
              <mxPoint x="520" y="214" />
            </Array>
          </mxGeometry>
        </mxCell>
        <mxCell id="lwENeaAtsfyGaTis-p5Q-25" value="" style="endArrow=none;html=1;rounded=0;flowAnimation=1;" edge="1" parent="1" source="lwENeaAtsfyGaTis-p5Q-9">
          <mxGeometry width="50" height="50" relative="1" as="geometry">
            <mxPoint x="300" y="280" as="sourcePoint" />
            <mxPoint x="298" y="215" as="targetPoint" />
          </mxGeometry>
        </mxCell>
      </root>
    </mxGraphModel>
  </diagram>
</mxfile>
